<svg width="40" height="40" viewBox="0 0 40 40" fill="none" xmlns="http://www.w3.org/2000/svg">
<path d="M8.33348 23.333H30.2264C31.9144 23.333 32.7584 23.333 33.4303 23.0183C34.0222 22.7411 34.5196 22.2959 34.8605 21.7383C35.2474 21.1052 35.3407 20.2663 35.5271 18.5886L36.5021 9.81358C36.559 9.30115 36.5875 9.04493 36.5051 8.84661C36.4327 8.67243 36.3034 8.52796 36.1383 8.4368C35.9503 8.33301 35.6925 8.33301 35.1769 8.33301H29.9999M7.50015 8.33301H14.1833M3.33325 3.33301H5.41398C5.85502 3.33301 6.07554 3.33301 6.24807 3.41688C6.39995 3.49072 6.52581 3.60896 6.60898 3.75594C6.70345 3.9229 6.71721 4.14299 6.74472 4.58317L8.25512 28.7495C8.28263 29.1897 8.29638 29.4098 8.39086 29.5767C8.47403 29.7237 8.59989 29.842 8.75177 29.9158C8.9243 29.9997 9.14482 29.9997 9.58585 29.9997H31.6666M12.4999 35.833H12.5166M27.4999 35.833H27.5166M13.3333 35.833C13.3333 36.2932 12.9602 36.6663 12.4999 36.6663C12.0397 36.6663 11.6666 36.2932 11.6666 35.833C11.6666 35.3728 12.0397 34.9997 12.4999 34.9997C12.9602 34.9997 13.3333 35.3728 13.3333 35.833ZM28.3333 35.833C28.3333 36.2932 27.9602 36.6663 27.4999 36.6663C27.0397 36.6663 26.6666 36.2932 26.6666 35.833C26.6666 35.3728 27.0397 34.9997 27.4999 34.9997C27.9602 34.9997 28.3333 35.3728 28.3333 35.833Z" stroke="#F3F3F3" stroke-width="2.5" stroke-linecap="round" stroke-linejoin="round"/>
<path d="M17 12.4997L22 17.4997M22 17.4997L27 12.4997M22 17.4997L22 5.83301" stroke="#F3F3F3" stroke-width="2.5" stroke-linecap="round" stroke-linejoin="round"/>
</svg>
