<svg width="40" height="40" viewBox="0 0 40 40" fill="none" xmlns="http://www.w3.org/2000/svg">
<path fill-rule="evenodd" clip-rule="evenodd" d="M36.6683 19.9992C36.6683 29.2039 29.2064 36.6659 20.0016 36.6659C10.7969 36.6659 3.33496 29.2039 3.33496 19.9992C3.33496 10.7944 10.7969 3.33252 20.0016 3.33252C29.2064 3.33252 36.6683 10.7944 36.6683 19.9992ZM21.1769 12.1556C20.526 11.5048 19.4707 11.5048 18.8199 12.1556L12.1532 18.8223C11.5023 19.4732 11.5023 20.5285 12.1532 21.1793C12.8041 21.8302 13.8593 21.8302 14.5102 21.1793L18.3317 17.3578V26.6675C18.3317 27.588 19.0779 28.3341 19.9984 28.3341C20.9188 28.3341 21.665 27.588 21.665 26.6675V17.3578L25.4865 21.1793C26.1374 21.8302 27.1927 21.8302 27.8435 21.1793C28.4944 20.5285 28.4944 19.4732 27.8435 18.8223L21.1769 12.1556Z" fill="#F3F3F3"/>
</svg>
