<svg width="40" height="40" viewBox="0 0 40 40" fill="none" xmlns="http://www.w3.org/2000/svg">
<path fill-rule="evenodd" clip-rule="evenodd" d="M36.6683 20.0004C36.6683 29.2052 29.2064 36.6671 20.0016 36.6671C10.7969 36.6671 3.33496 29.2052 3.33496 20.0004C3.33496 10.7957 10.7969 3.33374 20.0016 3.33374C29.2064 3.33374 36.6683 10.7957 36.6683 20.0004ZM27.8435 21.1789L21.1769 27.8456C20.526 28.4965 19.4707 28.4965 18.8199 27.8456L12.1532 21.1789C11.5023 20.528 11.5023 19.4728 12.1532 18.8219C12.8041 18.171 13.8593 18.171 14.5102 18.8219L18.3317 22.6434V13.3337C18.3317 12.4133 19.0779 11.6671 19.9984 11.6671C20.9188 11.6671 21.665 12.4133 21.665 13.3337V22.6434L25.4865 18.8219C26.1374 18.171 27.1927 18.171 27.8435 18.8219C28.4944 19.4728 28.4944 20.528 27.8435 21.1789Z" fill="#F3F3F3"/>
</svg>
