<svg width="40" height="42" viewBox="0 0 40 42" fill="none" xmlns="http://www.w3.org/2000/svg">
<path d="M23.3333 36.1667H16.6667M14.3884 6.22285C16.0326 5.10817 17.985 4.5 20 4.5C22.6522 4.5 25.1957 5.55357 27.0711 7.42893C28.9464 9.3043 30 11.8478 30 14.5C30 18.0013 30.4503 20.752 31.0807 22.8874M10.4311 11.5954C10.1478 12.5288 10 13.5068 10 14.5C10 19.6503 8.70078 23.1766 7.24944 25.509C6.02521 27.4765 5.4131 28.4602 5.43554 28.7346C5.46039 29.0385 5.52477 29.1543 5.76963 29.336C5.99076 29.5 6.98765 29.5 8.98142 29.5H28.3333M35 36.1667L5 6.16667" stroke="#F3F3F3" stroke-width="2.5" stroke-linecap="round" stroke-linejoin="round"/>
</svg>
