<svg width="41" height="42" viewBox="0 0 41 42" fill="none" xmlns="http://www.w3.org/2000/svg">
<path d="M17.2316 36.1667H24.3844M30.565 14.5C30.565 11.8478 29.5114 9.3043 27.6361 7.42893C25.7607 5.55357 23.2172 4.5 20.565 4.5C17.9128 4.5 15.3693 5.55357 13.4939 7.42893C11.6186 9.3043 10.565 11.8478 10.565 14.5C10.565 19.6503 9.26578 23.1766 7.81443 25.509C6.5902 27.4765 5.97809 28.4602 6.00053 28.7346C6.02539 29.0385 6.08976 29.1543 6.33462 29.336C6.55576 29.5 7.55264 29.5 9.54642 29.5H31.5836C33.5773 29.5 34.5742 29.5 34.7954 29.336C35.0402 29.1543 35.1046 29.0385 35.1294 28.7346C35.1519 28.4602 34.5398 27.4765 33.3156 25.509C31.8642 23.1766 30.565 19.6503 30.565 14.5Z" stroke="#F3F3F3" stroke-width="2.5" stroke-linecap="round" stroke-linejoin="round"/>
</svg>
