<svg width="40" height="40" viewBox="0 0 40 40" fill="none" xmlns="http://www.w3.org/2000/svg">
<path d="M25.1171 6.51153L24.6656 7.02574C30.1212 8.6938 32.6547 11.1018 32.6547 11.1018C25.0293 6.92541 16.0744 6.92541 8.67475 10.1737C7.48328 10.7256 6.78094 11.1018 6.78094 11.1018C6.78094 11.1018 9.4398 8.56839 15.2216 6.90033L14.8955 6.51153C14.8955 6.51153 10.4933 6.41119 5.87793 9.88527C5.87793 9.88527 1.25 18.2632 1.25 28.5976C1.25 28.5976 3.94649 33.2507 11.0452 33.4764C11.0452 33.4764 12.2366 32.0341 13.2023 30.8175C9.12625 29.601 7.58361 27.0299 7.58361 27.0299C8.0602 27.356 8.83779 27.795 8.9005 27.8326C14.3186 30.8677 22.0192 31.8585 28.9298 28.9614C30.0585 28.5475 31.3002 27.9329 32.6171 27.0675C32.6171 27.0675 31.0117 29.7013 26.8102 30.8928C27.7759 32.1094 28.9298 33.489 28.9298 33.489C36.0284 33.2632 38.75 28.6102 38.75 28.6102C38.75 18.2757 34.1221 9.89782 34.1221 9.89782C29.5192 6.4112 25.1171 6.51153 25.1171 6.51153ZM14.0176 25.6127C12.2241 25.6127 10.7441 24.0073 10.7441 22.0508C10.7441 20.0943 12.1865 18.489 14.0176 18.489C15.8487 18.489 17.3286 20.0943 17.291 22.0508C17.291 24.0073 15.8487 25.6127 14.0176 25.6127ZM25.7316 25.6127C23.9381 25.6127 22.4582 24.0073 22.4582 22.0508C22.4582 20.0943 23.9005 18.489 25.7316 18.489C27.5627 18.489 29.005 20.0943 29.005 22.0508C29.005 24.0073 27.5627 25.6127 25.7316 25.6127Z" fill="#F3F3F3"/>
</svg>
