<svg width="40" height="40" viewBox="0 0 40 40" fill="none" xmlns="http://www.w3.org/2000/svg">
<path d="M15.1244 29.24L12.5327 32.5852C12.5327 32.5852 6.03115 32.5471 1.75 27.6119C2.51042 15.5133 6.73073 9.36141 6.73073 9.36141C9.15594 7.55012 12.014 6.40688 15.0193 6.0459L16.4534 9.79047C17.5745 9.62565 18.6287 9.55739 20 9.55739C21.4414 9.55739 22.4285 9.62106 23.5968 9.80073L24.9807 6.0459C29.4672 6.38049 33.2693 9.36141 33.2693 9.36141C33.2693 9.36141 37.4896 15.521 38.25 27.6119C33.9689 32.5471 27.4673 32.5624 27.4673 32.5624L24.9812 29.2195M7.66738 26.1985C10.3363 27.9996 14.1863 29.6803 20 29.6803C25.682 29.6803 29.4883 28.0749 32.1495 26.3206M17.5134 20.9733C17.5134 22.8044 16.2129 24.2888 14.6086 24.2888C13.0044 24.2888 11.7039 22.8044 11.7039 20.9733C11.7039 19.1422 13.0044 17.6578 14.6086 17.6578C16.2129 17.6578 17.5134 19.1422 17.5134 20.9733ZM28.2961 20.9733C28.2961 22.8044 26.9956 24.2888 25.3914 24.2888C23.7871 24.2888 22.4866 22.8044 22.4866 20.9733C22.4866 19.1422 23.7871 17.6578 25.3914 17.6578C26.9956 17.6578 28.2961 19.1422 28.2961 20.9733Z" stroke="#F3F3F3" stroke-width="2.5" stroke-linecap="round" stroke-linejoin="round"/>
</svg>
