<svg width="40" height="40" viewBox="0 0 40 40" fill="none" xmlns="http://www.w3.org/2000/svg">
<path d="M20 13.3353C19.5622 13.3352 19.1287 13.2489 18.7242 13.0812C18.3197 12.9136 17.9522 12.6679 17.6427 12.3582C17.3331 12.0485 17.0876 11.6809 16.9202 11.2763C16.7527 10.8718 16.6666 10.4382 16.6667 10.0003C16.6668 9.56248 16.7532 9.12894 16.9208 8.72446C17.0885 8.31998 17.3342 7.95249 17.6439 7.64296C17.9535 7.33343 18.3212 7.08793 18.7257 6.92047C19.1303 6.75302 19.5639 6.66688 20.0017 6.66699C20.886 6.66721 21.734 7.0187 22.3591 7.64414C22.9842 8.26957 23.3353 9.11772 23.335 10.002C23.3348 10.8863 22.9833 11.7342 22.3579 12.3594C21.7325 12.9845 20.8843 13.3355 20 13.3353ZM20 16.6687C20.4379 16.6688 20.8714 16.7551 21.2759 16.9228C21.6804 17.0904 22.0479 17.3361 22.3574 17.6458C22.6669 17.9555 22.9124 18.3231 23.0799 18.7277C23.2474 19.1322 23.3335 19.5658 23.3334 20.0037C23.3333 20.4415 23.2469 20.875 23.0793 21.2795C22.9116 21.684 22.6659 22.0515 22.3562 22.361C22.0465 22.6706 21.6789 22.9161 21.2744 23.0835C20.8698 23.251 20.4362 23.3371 19.9984 23.337C19.1141 23.3368 18.2661 22.9853 17.641 22.3598C17.0159 21.7344 16.6648 20.8863 16.665 20.002C16.6653 19.1177 17.0167 18.2697 17.6422 17.6446C18.2676 17.0195 19.1158 16.6684 20 16.6687ZM20 26.6687C20.4379 26.6688 20.8714 26.7551 21.2759 26.9228C21.6804 27.0904 22.0479 27.3361 22.3574 27.6458C22.6669 27.9555 22.9124 28.3231 23.0799 28.7277C23.2474 29.1322 23.3335 29.5658 23.3334 30.0037C23.3333 30.4415 23.2469 30.875 23.0793 31.2795C22.9116 31.684 22.6659 32.0515 22.3562 32.361C22.0465 32.6706 21.6789 32.9161 21.2744 33.0835C20.8698 33.251 20.4362 33.3371 19.9984 33.337C19.1141 33.3368 18.2661 32.9853 17.641 32.3598C17.0159 31.7344 16.6648 30.8863 16.665 30.002C16.6653 29.1177 17.0167 28.2697 17.6422 27.6446C18.2676 27.0195 19.1158 26.6684 20 26.6687Z" fill="#F3F3F3"/>
</svg>
