<svg width="40" height="40" viewBox="0 0 40 40" fill="none" xmlns="http://www.w3.org/2000/svg">
<path d="M23.3334 3.7826V10.6668C23.3334 11.6003 23.3334 12.067 23.5151 12.4235C23.6749 12.7371 23.9298 12.9921 24.2434 13.1518C24.6 13.3335 25.0667 13.3335 26.0001 13.3335H32.8843M33.3334 16.6472V28.6668C33.3334 31.4671 33.3334 32.8672 32.7884 33.9368C32.3091 34.8776 31.5442 35.6425 30.6034 36.1219C29.5338 36.6668 28.1337 36.6668 25.3334 36.6668H14.6667C11.8665 36.6668 10.4664 36.6668 9.3968 36.1219C8.45599 35.6425 7.69108 34.8776 7.21172 33.9368C6.66675 32.8672 6.66675 31.4671 6.66675 28.6668V11.3335C6.66675 8.53323 6.66675 7.1331 7.21172 6.06354C7.69108 5.12273 8.45599 4.35783 9.3968 3.87846C10.4664 3.3335 11.8665 3.3335 14.6667 3.3335H20.0197C21.2427 3.3335 21.8541 3.3335 22.4296 3.47165C22.9398 3.59413 23.4275 3.79615 23.8748 4.0703C24.3794 4.3795 24.8118 4.81188 25.6766 5.67664L30.9903 10.9903C31.855 11.8551 32.2874 12.2875 32.5966 12.7921C32.8708 13.2394 33.0728 13.7272 33.1953 14.2373C33.3334 14.8128 33.3334 15.4243 33.3334 16.6472Z" stroke="#F3F3F3" stroke-width="2.5" stroke-linecap="round" stroke-linejoin="round"/>
</svg>
