<svg width="40" height="40" viewBox="0 0 40 40" fill="none" xmlns="http://www.w3.org/2000/svg">
<path d="M21.2502 23.5649C21.2502 22.8745 20.6905 22.3149 20.0002 22.3149C19.3098 22.3149 18.7502 22.8745 18.7502 23.5649H21.2502ZM18.7502 26.4167C18.7502 27.1071 19.3098 27.6667 20.0002 27.6667C20.6905 27.6667 21.2502 27.1071 21.2502 26.4167H18.7502ZM26.0418 14.2964V17.1482H28.5418V14.2964H26.0418ZM13.9585 17.1482V14.2964H11.4585V17.1482H13.9585ZM20.0002 8.41675C23.3635 8.41675 26.0418 11.0755 26.0418 14.2964H28.5418C28.5418 9.6421 24.691 5.91675 20.0002 5.91675V8.41675ZM20.0002 5.91675C15.3094 5.91675 11.4585 9.6421 11.4585 14.2964H13.9585C13.9585 11.0755 16.6368 8.41675 20.0002 8.41675V5.91675ZM18.7502 23.5649V26.4167H21.2502V23.5649H18.7502ZM11.2502 18.3982H28.7502V15.8982H11.2502V18.3982ZM30.4168 20.0001V29.9816H32.9168V20.0001H30.4168ZM28.7502 31.5834H11.2502V34.0834H28.7502V31.5834ZM9.5835 29.9816V20.0001H7.0835V29.9816H9.5835ZM11.2502 31.5834C10.3031 31.5834 9.5835 30.8399 9.5835 29.9816H7.0835C7.0835 32.2733 8.97561 34.0834 11.2502 34.0834V31.5834ZM30.4168 29.9816C30.4168 30.8399 29.6973 31.5834 28.7502 31.5834V34.0834C31.0247 34.0834 32.9168 32.2733 32.9168 29.9816H30.4168ZM28.7502 18.3982C29.6973 18.3982 30.4168 19.1417 30.4168 20.0001H32.9168C32.9168 17.7084 31.0247 15.8982 28.7502 15.8982V18.3982ZM11.2502 15.8982C8.97561 15.8982 7.0835 17.7084 7.0835 20.0001H9.5835C9.5835 19.1417 10.3031 18.3982 11.2502 18.3982V15.8982Z" fill="#F3F3F3"/>
</svg>
