<svg width="40" height="40" viewBox="0 0 40 40" fill="none" xmlns="http://www.w3.org/2000/svg">
<path d="M3.33374 11.6675L16.9419 21.1932C18.0439 21.9646 18.5949 22.3503 19.1942 22.4997C19.7236 22.6316 20.2772 22.6316 20.8066 22.4997C21.4059 22.3503 21.9569 21.9646 23.0589 21.1932L36.6671 11.6675M11.3337 33.3341H28.6671C31.4673 33.3341 32.8675 33.3341 33.937 32.7892C34.8778 32.3098 35.6427 31.5449 36.1221 30.6041C36.6671 29.5345 36.6671 28.1344 36.6671 25.3341V14.6675C36.6671 11.8672 36.6671 10.4671 36.1221 9.39753C35.6427 8.45672 34.8778 7.69181 33.937 7.21245C32.8675 6.66748 31.4673 6.66748 28.6671 6.66748H11.3337C8.53348 6.66748 7.13335 6.66748 6.06379 7.21245C5.12298 7.69181 4.35807 8.45672 3.87871 9.39753C3.33374 10.4671 3.33374 11.8672 3.33374 14.6675V25.3341C3.33374 28.1344 3.33374 29.5345 3.87871 30.6041C4.35807 31.5449 5.12298 32.3098 6.06379 32.7892C7.13335 33.3341 8.53348 33.3341 11.3337 33.3341Z" stroke="#F3F3F3" stroke-width="2.5" stroke-linecap="round" stroke-linejoin="round"/>
</svg>
