<svg width="40" height="40" viewBox="0 0 40 40" fill="none" xmlns="http://www.w3.org/2000/svg">
<path d="M8.33348 23.3335H30.2264C31.9144 23.3335 32.7584 23.3335 33.4303 23.0188C34.0222 22.7415 34.5196 22.2964 34.8605 21.7388C35.2474 21.1057 35.3407 20.2668 35.5271 18.5891L36.5021 9.81407C36.559 9.30163 36.5875 9.04541 36.5051 8.8471C36.4327 8.67292 36.3034 8.52845 36.1383 8.43729C35.9503 8.3335 35.6925 8.3335 35.1769 8.3335H7.50015M3.33325 3.3335H5.41398C5.85502 3.3335 6.07554 3.3335 6.24807 3.41737C6.39995 3.49121 6.52581 3.60945 6.60898 3.75643C6.70345 3.92339 6.71721 4.14348 6.74472 4.58366L8.25512 28.75C8.28263 29.1902 8.29638 29.4103 8.39086 29.5772C8.47403 29.7242 8.59989 29.8425 8.75177 29.9163C8.9243 30.0002 9.14482 30.0002 9.58585 30.0002H31.6666M12.4999 35.8335H12.5166M27.4999 35.8335H27.5166M13.3333 35.8335C13.3333 36.2937 12.9602 36.6668 12.4999 36.6668C12.0397 36.6668 11.6666 36.2937 11.6666 35.8335C11.6666 35.3733 12.0397 35.0002 12.4999 35.0002C12.9602 35.0002 13.3333 35.3733 13.3333 35.8335ZM28.3333 35.8335C28.3333 36.2937 27.9602 36.6668 27.4999 36.6668C27.0397 36.6668 26.6666 36.2937 26.6666 35.8335C26.6666 35.3733 27.0397 35.0002 27.4999 35.0002C27.9602 35.0002 28.3333 35.3733 28.3333 35.8335Z" stroke="#F3F3F3" stroke-width="2.5" stroke-linecap="round" stroke-linejoin="round"/>
</svg>
