<svg width="41" height="41" viewBox="0 0 41 41" fill="none" xmlns="http://www.w3.org/2000/svg">
<circle cx="20.4698" cy="20.4697" r="15.7197" stroke="#F3F3F3" stroke-width="2.5"/>
<path d="M18.9386 23.7411V23.6037C18.9483 22.707 19.0375 21.9935 19.2062 21.4632C19.3797 20.9329 19.6256 20.5039 19.9438 20.1761C20.262 19.8482 20.6452 19.5493 21.0936 19.2794C21.3828 19.0962 21.6432 18.8913 21.8746 18.6647C22.106 18.4381 22.2892 18.1778 22.4242 17.8837C22.5591 17.5896 22.6266 17.2642 22.6266 16.9075C22.6266 16.4784 22.5254 16.1072 22.3229 15.7938C22.1204 15.4805 21.8505 15.2394 21.513 15.0707C21.1804 14.8971 20.8091 14.8104 20.3994 14.8104C20.0282 14.8104 19.6738 14.8875 19.3363 15.0418C18.9989 15.196 18.7193 15.4371 18.4975 15.7649C18.2757 16.0879 18.148 16.5049 18.1142 17.0159H15.9159C15.9496 16.1482 16.169 15.4154 16.574 14.8176C16.9789 14.215 17.514 13.7594 18.1793 13.4508C18.8494 13.1423 19.5894 12.988 20.3994 12.988C21.2864 12.988 22.0626 13.1544 22.7279 13.487C23.3932 13.8148 23.909 14.2752 24.2754 14.8682C24.6466 15.4564 24.8322 16.1433 24.8322 16.9292C24.8322 17.4691 24.7479 17.956 24.5791 18.3899C24.4104 18.819 24.1693 19.2022 23.856 19.5397C23.5474 19.8772 23.1762 20.1761 22.7423 20.4364C22.3326 20.6919 21.9999 20.957 21.7444 21.2318C21.4937 21.5066 21.3105 21.832 21.1948 22.2081C21.0791 22.5841 21.0164 23.0493 21.0068 23.6037V23.7411H18.9386ZM20.0306 28.1378C19.6352 28.1378 19.2954 27.998 19.0109 27.7184C18.7265 27.434 18.5843 27.0917 18.5843 26.6916C18.5843 26.2962 18.7265 25.9588 19.0109 25.6792C19.2954 25.3947 19.6352 25.2525 20.0306 25.2525C20.4211 25.2525 20.7585 25.3947 21.043 25.6792C21.3322 25.9588 21.4768 26.2962 21.4768 26.6916C21.4768 26.9567 21.4094 27.2002 21.2744 27.4219C21.1442 27.6389 20.9706 27.8124 20.7537 27.9426C20.5368 28.0727 20.2957 28.1378 20.0306 28.1378Z" fill="#F3F3F3"/>
</svg>
