<svg width="40" height="40" viewBox="0 0 40 40" fill="none" xmlns="http://www.w3.org/2000/svg">
<path d="M8.86212 32.3977C9.876 30.0091 12.2432 28.3337 15.0016 28.3337H25.0016C27.7601 28.3337 30.1273 30.0091 31.1411 32.3978M26.6683 15.8337C26.6683 19.5156 23.6835 22.5004 20.0016 22.5004C16.3197 22.5004 13.335 19.5156 13.335 15.8337C13.335 12.1518 16.3197 9.16707 20.0016 9.16707C23.6835 9.16707 26.6683 12.1518 26.6683 15.8337ZM36.6683 20.0004C36.6683 29.2052 29.2064 36.6671 20.0016 36.6671C10.7969 36.6671 3.33496 29.2052 3.33496 20.0004C3.33496 10.7957 10.7969 3.33374 20.0016 3.33374C29.2064 3.33374 36.6683 10.7957 36.6683 20.0004Z" stroke="#F3F3F3" stroke-width="2.5" stroke-linecap="round" stroke-linejoin="round"/>
</svg>
