<svg width="40" height="40" viewBox="0 0 40 40" fill="none" xmlns="http://www.w3.org/2000/svg">
<path d="M3.57733 21.2225C3.34388 20.8529 3.22715 20.668 3.16181 20.383C3.11273 20.1688 3.11273 19.8311 3.16181 19.617C3.22715 19.3319 3.34388 19.1471 3.57733 18.7774C5.50652 15.7227 11.2489 8.00049 20 8.00049C28.7511 8.00049 34.4935 15.7227 36.4227 18.7774C36.6561 19.1471 36.7728 19.3319 36.8382 19.617C36.8873 19.8311 36.8873 20.1688 36.8382 20.383C36.7728 20.668 36.6561 20.8529 36.4227 21.2225C34.4935 24.2772 28.7511 31.9994 20 31.9994C11.2489 31.9994 5.50652 24.2772 3.57733 21.2225Z" stroke="#F3F3F3" stroke-width="2.5" stroke-linecap="round" stroke-linejoin="round"/>
<path d="M20 25C22.7614 25 25 22.7614 25 20C25 17.2386 22.7614 15 20 15C17.2386 15 15 17.2386 15 20C15 22.7614 17.2386 25 20 25Z" stroke="#F3F3F3" stroke-width="2.5" stroke-linecap="round" stroke-linejoin="round"/>
</svg>
