<svg width="20" height="20" viewBox="0 0 20 20" fill="none" xmlns="http://www.w3.org/2000/svg">
<path d="M4.16674 11.6666H15.1132C15.9572 11.6666 16.3792 11.6666 16.7152 11.5093C17.0111 11.3707 17.2598 11.1481 17.4302 10.8693C17.6237 10.5527 17.6703 10.1333 17.7635 9.29446L18.251 4.90693C18.2795 4.65071 18.2937 4.5226 18.2525 4.42344C18.2164 4.33635 18.1517 4.26412 18.0691 4.21854C17.9751 4.16664 17.8462 4.16664 17.5884 4.16664H15M3.75008 4.16664H7.09163M1.66663 1.66664H2.70699C2.92751 1.66664 3.03777 1.66664 3.12403 1.70858C3.19997 1.7455 3.26291 1.80462 3.30449 1.87811C3.35173 1.96159 3.3586 2.07163 3.37236 2.29172L4.12756 14.3749C4.14131 14.595 4.14819 14.705 4.19543 14.7885C4.23701 14.862 4.29994 14.9211 4.37589 14.958C4.46215 15 4.57241 15 4.79293 15H15.8333M6.24996 17.9166H6.25829M13.75 17.9166H13.7583M6.66663 17.9166C6.66663 18.1468 6.48008 18.3333 6.24996 18.3333C6.01984 18.3333 5.83329 18.1468 5.83329 17.9166C5.83329 17.6865 6.01984 17.5 6.24996 17.5C6.48008 17.5 6.66663 17.6865 6.66663 17.9166ZM14.1666 17.9166C14.1666 18.1468 13.9801 18.3333 13.75 18.3333C13.5198 18.3333 13.3333 18.1468 13.3333 17.9166C13.3333 17.6865 13.5198 17.5 13.75 17.5C13.9801 17.5 14.1666 17.6865 14.1666 17.9166Z" stroke="#F3F3F3" stroke-linecap="round" stroke-linejoin="round"/>
<path d="M8.5 6.24997L11 8.74997M11 8.74997L13.5 6.24998M11 8.74997L11 2.91664" stroke="#F3F3F3" stroke-linecap="round" stroke-linejoin="round"/>
</svg>
