<svg width="20" height="20" viewBox="0 0 20 20" fill="none" xmlns="http://www.w3.org/2000/svg">
<path fill-rule="evenodd" clip-rule="evenodd" d="M18.3341 9.99959C18.3341 14.602 14.6032 18.3329 10.0008 18.3329C5.39844 18.3329 1.66748 14.602 1.66748 9.99959C1.66748 5.39722 5.39844 1.66626 10.0008 1.66626C14.6032 1.66626 18.3341 5.39722 18.3341 9.99959ZM10.5884 6.07782C10.263 5.75238 9.73537 5.75238 9.40993 6.07782L6.0766 9.41115C5.75116 9.73659 5.75116 10.2642 6.0766 10.5897C6.40203 10.9151 6.92967 10.9151 7.25511 10.5897L9.16585 8.67892V13.3337C9.16585 13.794 9.53895 14.1671 9.99919 14.1671C10.4594 14.1671 10.8325 13.794 10.8325 13.3337V8.67892L12.7433 10.5897C13.0687 10.9151 13.5963 10.9151 13.9218 10.5897C14.2472 10.2642 14.2472 9.73659 13.9218 9.41115L10.5884 6.07782Z" fill="#F3F3F3"/>
</svg>
