<svg width="20" height="20" viewBox="0 0 20 20" fill="none" xmlns="http://www.w3.org/2000/svg">
<path fill-rule="evenodd" clip-rule="evenodd" d="M18.3341 10.0002C18.3341 14.6026 14.6032 18.3335 10.0008 18.3335C5.39844 18.3335 1.66748 14.6026 1.66748 10.0002C1.66748 5.39783 5.39844 1.66687 10.0008 1.66687C14.6032 1.66687 18.3341 5.39783 18.3341 10.0002ZM13.9218 10.5895L10.5884 13.9228C10.263 14.2482 9.73537 14.2482 9.40993 13.9228L6.0766 10.5895C5.75116 10.264 5.75116 9.73638 6.0766 9.41095C6.40203 9.08551 6.92967 9.08551 7.25511 9.41095L9.16585 11.3217V6.66687C9.16585 6.20663 9.53895 5.83354 9.99919 5.83354C10.4594 5.83354 10.8325 6.20663 10.8325 6.66687V11.3217L12.7433 9.41095C13.0687 9.08551 13.5963 9.08551 13.9218 9.41095C14.2472 9.73638 14.2472 10.264 13.9218 10.5895Z" fill="#F3F3F3"/>
</svg>
