<svg width="20" height="21" viewBox="0 0 20 21" fill="none" xmlns="http://www.w3.org/2000/svg">
<path d="M11.6667 18.0833H8.33333M7.19421 3.11144C8.01632 2.5541 8.99248 2.25002 9.99999 2.25002C11.3261 2.25002 12.5978 2.7768 13.5355 3.71448C14.4732 4.65216 15 5.92393 15 7.25002C15 9.00066 15.2252 10.376 15.5403 11.4437M5.21556 5.79771C5.07388 6.2644 5 6.7534 5 7.25001C5 9.82517 4.35039 11.5883 3.62472 12.7545C3.01261 13.7382 2.70655 14.2301 2.71777 14.3673C2.7302 14.5192 2.76238 14.5772 2.88481 14.668C2.99538 14.75 3.49383 14.75 4.49071 14.75H14.1667M17.5 18.0833L2.5 3.08335" stroke="#F3F3F3" stroke-linecap="round" stroke-linejoin="round"/>
</svg>
