<svg width="21" height="21" viewBox="0 0 21 21" fill="none" xmlns="http://www.w3.org/2000/svg">
<path d="M9.11584 18.0833H12.6922M15.7825 7.24999C15.7825 5.92391 15.2557 4.65214 14.3181 3.71446C13.3804 2.77678 12.1086 2.24999 10.7825 2.24999C9.45644 2.24999 8.18467 2.77678 7.24699 3.71446C6.30931 4.65214 5.78253 5.92391 5.78253 7.24999C5.78253 9.82515 5.13292 11.5883 4.40725 12.7545C3.79513 13.7382 3.48908 14.2301 3.5003 14.3673C3.51272 14.5192 3.54491 14.5772 3.66734 14.668C3.77791 14.75 4.27635 14.75 5.27324 14.75H16.2918C17.2887 14.75 17.7871 14.75 17.8977 14.668C18.0201 14.5772 18.0523 14.5192 18.0648 14.3673C18.076 14.2301 17.7699 13.7382 17.1578 12.7545C16.4321 11.5883 15.7825 9.82515 15.7825 7.24999Z" stroke="#F3F3F3" stroke-linecap="round" stroke-linejoin="round"/>
</svg>
