<svg width="20" height="20" viewBox="0 0 20 20" fill="none" xmlns="http://www.w3.org/2000/svg">
<path d="M7.5622 14.62L6.26635 16.2926C6.26635 16.2926 3.01557 16.2736 0.875 13.806C1.25521 7.75667 3.36536 4.6807 3.36536 4.6807C4.57797 3.77506 6.00698 3.20344 7.50964 3.02295L8.2267 4.89524C8.78727 4.81283 9.31437 4.77869 10 4.77869C10.7207 4.77869 11.2143 4.81053 11.7984 4.90036L12.4904 3.02295C14.7336 3.19025 16.6346 4.6807 16.6346 4.6807C16.6346 4.6807 18.7448 7.76048 19.125 13.806C16.9844 16.2736 13.7336 16.2812 13.7336 16.2812L12.4906 14.6098M3.83369 13.0992C5.16817 13.9998 7.09315 14.8401 10 14.8401C12.841 14.8401 14.7441 14.0374 16.0747 13.1603M8.75672 10.4866C8.75672 11.4022 8.10646 12.1444 7.30432 12.1444C6.50219 12.1444 5.85193 11.4022 5.85193 10.4866C5.85193 9.57109 6.50219 8.82889 7.30432 8.82889C8.10646 8.82889 8.75672 9.57109 8.75672 10.4866ZM14.1481 10.4866C14.1481 11.4022 13.4978 12.1444 12.6957 12.1444C11.8935 12.1444 11.2433 11.4022 11.2433 10.4866C11.2433 9.57109 11.8935 8.82889 12.6957 8.82889C13.4978 8.82889 14.1481 9.57109 14.1481 10.4866Z" stroke="#F3F3F3" stroke-linecap="round" stroke-linejoin="round"/>
</svg>
