<svg width="20" height="20" viewBox="0 0 20 20" fill="none" xmlns="http://www.w3.org/2000/svg">
<path d="M10 6.66751C9.7811 6.66746 9.56433 6.62428 9.36209 6.54045C9.15985 6.45662 8.9761 6.33378 8.82134 6.17894C8.66657 6.0241 8.54382 5.84029 8.46009 5.63801C8.37636 5.43573 8.3333 5.21893 8.33335 5.00001C8.33341 4.78109 8.37658 4.56432 8.46041 4.36208C8.54424 4.15984 8.66708 3.97609 8.82193 3.82133C8.97677 3.66656 9.16058 3.54381 9.36286 3.46008C9.56514 3.37636 9.78193 3.33329 10.0009 3.33334C10.443 3.33345 10.867 3.5092 11.1795 3.82192C11.4921 4.13463 11.6676 4.55871 11.6675 5.00084C11.6674 5.44298 11.4917 5.86697 11.1789 6.17953C10.8662 6.49209 10.4422 6.66762 10 6.66751ZM10 8.33418C10.2189 8.33423 10.4357 8.37741 10.638 8.46124C10.8402 8.54507 11.0239 8.66791 11.1787 8.82275C11.3335 8.97759 11.4562 9.1614 11.5399 9.36368C11.6237 9.56596 11.6667 9.78275 11.6667 10.0017C11.6666 10.2206 11.6235 10.4374 11.5396 10.6396C11.4558 10.8419 11.333 11.0256 11.1781 11.1804C11.0233 11.3351 10.8395 11.4579 10.6372 11.5416C10.4349 11.6253 10.2181 11.6684 9.99919 11.6683C9.55705 11.6682 9.13306 11.4925 8.8205 11.1798C8.50794 10.8671 8.33241 10.443 8.33252 10.0008C8.33263 9.55871 8.50837 9.13472 8.82109 8.82216C9.13381 8.5096 9.55788 8.33407 10 8.33418ZM10 13.3342C10.2189 13.3342 10.4357 13.3774 10.638 13.4612C10.8402 13.5451 11.0239 13.6679 11.1787 13.8228C11.3335 13.9776 11.4562 14.1614 11.5399 14.3637C11.6237 14.566 11.6667 14.7828 11.6667 15.0017C11.6666 15.2206 11.6235 15.4374 11.5396 15.6396C11.4558 15.8418 11.333 16.0256 11.1781 16.1804C11.0233 16.3351 10.8395 16.4579 10.6372 16.5416C10.4349 16.6253 10.2181 16.6684 9.99919 16.6683C9.55705 16.6682 9.13306 16.4925 8.8205 16.1798C8.50794 15.8671 8.33241 15.443 8.33252 15.0008C8.33263 14.5587 8.50837 14.1347 8.82109 13.8222C9.13381 13.5096 9.55788 13.3341 10 13.3342Z" fill="#F3F3F3"/>
</svg>
