<svg width="20" height="20" viewBox="0 0 20 20" fill="none" xmlns="http://www.w3.org/2000/svg">
<path d="M11.6667 1.89121V5.33332C11.6667 5.80003 11.6667 6.03339 11.7575 6.21165C11.8374 6.36845 11.9649 6.49593 12.1217 6.57583C12.3 6.66666 12.5333 6.66666 13 6.66666H16.4422M16.6667 8.32351V14.3333C16.6667 15.7335 16.6667 16.4335 16.3942 16.9683C16.1545 17.4387 15.7721 17.8212 15.3017 18.0608C14.7669 18.3333 14.0668 18.3333 12.6667 18.3333H7.33337C5.93324 18.3333 5.23318 18.3333 4.6984 18.0608C4.22799 17.8212 3.84554 17.4387 3.60586 16.9683C3.33337 16.4335 3.33337 15.7335 3.33337 14.3333V5.66666C3.33337 4.26653 3.33337 3.56646 3.60586 3.03168C3.84554 2.56128 4.22799 2.17882 4.6984 1.93914C5.23318 1.66666 5.93324 1.66666 7.33337 1.66666H10.0099C10.6213 1.66666 10.9271 1.66666 11.2148 1.73573C11.4699 1.79697 11.7137 1.89798 11.9374 2.03506C12.1897 2.18966 12.4059 2.40585 12.8383 2.83823L15.4951 5.49508C15.9275 5.92746 16.1437 6.14365 16.2983 6.39594C16.4354 6.61963 16.5364 6.86349 16.5976 7.11858C16.6667 7.4063 16.6667 7.71203 16.6667 8.32351Z" stroke="#F3F3F3" stroke-linecap="round" stroke-linejoin="round"/>
</svg>
