<svg width="20" height="20" viewBox="0 0 20 20" fill="none" xmlns="http://www.w3.org/2000/svg">
<path d="M10.5001 11.7824C10.5001 11.5062 10.2762 11.2824 10.0001 11.2824C9.72394 11.2824 9.50008 11.5062 9.50008 11.7824H10.5001ZM9.50008 13.2083C9.50008 13.4845 9.72394 13.7083 10.0001 13.7083C10.2762 13.7083 10.5001 13.4845 10.5001 13.2083H9.50008ZM13.1459 7.14813V8.57405H14.1459V7.14813H13.1459ZM6.85425 8.57405V7.14813H5.85425V8.57405H6.85425ZM10.0001 4.08331C11.7481 4.08331 13.1459 5.46601 13.1459 7.14813H14.1459C14.1459 4.89266 12.2791 3.08331 10.0001 3.08331V4.08331ZM10.0001 3.08331C7.72105 3.08331 5.85425 4.89266 5.85425 7.14813H6.85425C6.85425 5.46601 8.25203 4.08331 10.0001 4.08331V3.08331ZM9.50008 11.7824V13.2083H10.5001V11.7824H9.50008ZM5.62508 9.07405H14.3751V8.07405H5.62508V9.07405ZM15.3334 9.99998V14.9907H16.3334V9.99998H15.3334ZM14.3751 15.9166H5.62508V16.9166H14.3751V15.9166ZM4.66675 14.9907V9.99998H3.66675V14.9907H4.66675ZM5.62508 15.9166C5.08516 15.9166 4.66675 15.4916 4.66675 14.9907H3.66675C3.66675 16.0649 4.55418 16.9166 5.62508 16.9166V15.9166ZM15.3334 14.9907C15.3334 15.4916 14.915 15.9166 14.3751 15.9166V16.9166C15.446 16.9166 16.3334 16.0649 16.3334 14.9907H15.3334ZM14.3751 9.07405C14.915 9.07405 15.3334 9.49914 15.3334 9.99998H16.3334C16.3334 8.92579 15.446 8.07405 14.3751 8.07405V9.07405ZM5.62508 8.07405C4.55418 8.07405 3.66675 8.92579 3.66675 9.99998H4.66675C4.66675 9.49914 5.08516 9.07405 5.62508 9.07405V8.07405Z" fill="#F3F3F3"/>
</svg>
