<svg width="20" height="20" viewBox="0 0 20 20" fill="none" xmlns="http://www.w3.org/2000/svg">
<path d="M1.66687 5.83374L8.47097 10.5966C9.02195 10.9823 9.29743 11.1751 9.59709 11.2498C9.86178 11.3158 10.1386 11.3158 10.4033 11.2498C10.703 11.1751 10.9785 10.9823 11.5294 10.5966L18.3335 5.83374M5.66687 16.6671H14.3335C15.7337 16.6671 16.4337 16.6671 16.9685 16.3946C17.4389 16.1549 17.8214 15.7725 18.0611 15.302C18.3335 14.7673 18.3335 14.0672 18.3335 12.6671V7.33374C18.3335 5.93361 18.3335 5.23354 18.0611 4.69876C17.8214 4.22836 17.4389 3.84591 16.9685 3.60622C16.4337 3.33374 15.7337 3.33374 14.3335 3.33374H5.66687C4.26674 3.33374 3.56667 3.33374 3.03189 3.60622C2.56149 3.84591 2.17904 4.22836 1.93935 4.69876C1.66687 5.23354 1.66687 5.93361 1.66687 7.33374V12.6671C1.66687 14.0672 1.66687 14.7673 1.93935 15.302C2.17904 15.7725 2.56149 16.1549 3.03189 16.3946C3.56667 16.6671 4.26674 16.6671 5.66687 16.6671Z" stroke="#F3F3F3" stroke-linecap="round" stroke-linejoin="round"/>
</svg>
