<svg width="20" height="20" viewBox="0 0 20 20" fill="none" xmlns="http://www.w3.org/2000/svg">
<path d="M4.16674 11.6667H15.1132C15.9572 11.6667 16.3792 11.6667 16.7152 11.5093C17.0111 11.3707 17.2598 11.1481 17.4302 10.8693C17.6237 10.5528 17.6703 10.1333 17.7635 9.29449L18.251 4.90696C18.2795 4.65074 18.2937 4.52263 18.2525 4.42347C18.2164 4.33638 18.1517 4.26415 18.0691 4.21857C17.9751 4.16667 17.8462 4.16667 17.5884 4.16667H3.75008M1.66663 1.66667H2.70699C2.92751 1.66667 3.03777 1.66667 3.12403 1.70861C3.19997 1.74553 3.26291 1.80465 3.30449 1.87814C3.35173 1.96162 3.3586 2.07166 3.37236 2.29175L4.12756 14.3749C4.14131 14.595 4.14819 14.7051 4.19543 14.7885C4.23701 14.862 4.29994 14.9211 4.37589 14.9581C4.46215 15 4.57241 15 4.79293 15H15.8333M6.24996 17.9167H6.25829M13.75 17.9167H13.7583M6.66663 17.9167C6.66663 18.1468 6.48008 18.3333 6.24996 18.3333C6.01984 18.3333 5.83329 18.1468 5.83329 17.9167C5.83329 17.6866 6.01984 17.5 6.24996 17.5C6.48008 17.5 6.66663 17.6866 6.66663 17.9167ZM14.1666 17.9167C14.1666 18.1468 13.9801 18.3333 13.75 18.3333C13.5198 18.3333 13.3333 18.1468 13.3333 17.9167C13.3333 17.6866 13.5198 17.5 13.75 17.5C13.9801 17.5 14.1666 17.6866 14.1666 17.9167Z" stroke="#F3F3F3" stroke-linecap="round" stroke-linejoin="round"/>
</svg>
