<svg width="21" height="21" viewBox="0 0 21 21" fill="none" xmlns="http://www.w3.org/2000/svg">
<circle cx="10.7348" cy="10.7348" r="7.98485" stroke="#F3F3F3"/>
<path d="M9.96937 12.3704V12.3017C9.97419 11.8533 10.0188 11.4966 10.1032 11.2314C10.1899 10.9663 10.3129 10.7517 10.472 10.5878C10.631 10.4239 10.8227 10.2745 11.0469 10.1395C11.1915 10.0479 11.3216 9.94544 11.4373 9.83215C11.553 9.71885 11.6446 9.58869 11.7121 9.44165C11.7796 9.29461 11.8134 9.13191 11.8134 8.95353C11.8134 8.739 11.7628 8.55339 11.6615 8.39671C11.5603 8.24003 11.4253 8.11951 11.2566 8.03514C11.0902 7.94837 10.9046 7.90498 10.6997 7.90498C10.5141 7.90498 10.337 7.94354 10.1682 8.02068C9.9995 8.09782 9.8597 8.21834 9.74881 8.38225C9.63793 8.54375 9.57405 8.75226 9.55718 9.00777H8.45801C8.47488 8.57388 8.58456 8.20749 8.78704 7.90859C8.98952 7.60728 9.25708 7.3795 9.58972 7.22523C9.92478 7.07096 10.2948 6.99382 10.6997 6.99382C11.1433 6.99382 11.5314 7.07698 11.864 7.2433C12.1966 7.40722 12.4546 7.63742 12.6378 7.9339C12.8234 8.22798 12.9162 8.57147 12.9162 8.96438C12.9162 9.23435 12.874 9.47781 12.7896 9.69475C12.7053 9.90928 12.5847 10.1009 12.428 10.2696C12.2738 10.4384 12.0882 10.5878 11.8712 10.718C11.6663 10.8457 11.5 10.9783 11.3723 11.1157C11.2469 11.2531 11.1553 11.4158 11.0975 11.6038C11.0396 11.7919 11.0083 12.0245 11.0035 12.3017V12.3704H9.96937ZM10.5153 14.5687C10.3177 14.5687 10.1477 14.4988 10.0055 14.359C9.86331 14.2168 9.7922 14.0456 9.7922 13.8456C9.7922 13.6479 9.86331 13.4792 10.0055 13.3394C10.1477 13.1972 10.3177 13.1261 10.5153 13.1261C10.7106 13.1261 10.8793 13.1972 11.0215 13.3394C11.1662 13.4792 11.2385 13.6479 11.2385 13.8456C11.2385 13.9782 11.2047 14.0999 11.1372 14.2108C11.0722 14.3192 10.9854 14.406 10.8769 14.4711C10.7684 14.5362 10.6479 14.5687 10.5153 14.5687Z" fill="#F3F3F3"/>
</svg>
