<svg width="20" height="20" viewBox="0 0 20 20" fill="none" xmlns="http://www.w3.org/2000/svg">
<path d="M4.43106 16.1989C4.938 15.0045 6.12158 14.1669 7.50081 14.1669H12.5008C13.88 14.1669 15.0636 15.0045 15.5706 16.1989M13.3341 7.91687C13.3341 9.75782 11.8418 11.2502 10.0008 11.2502C8.15986 11.2502 6.66748 9.75782 6.66748 7.91687C6.66748 6.07592 8.15986 4.58354 10.0008 4.58354C11.8418 4.58354 13.3341 6.07592 13.3341 7.91687ZM18.3341 10.0002C18.3341 14.6026 14.6032 18.3335 10.0008 18.3335C5.39844 18.3335 1.66748 14.6026 1.66748 10.0002C1.66748 5.39783 5.39844 1.66687 10.0008 1.66687C14.6032 1.66687 18.3341 5.39783 18.3341 10.0002Z" stroke="#F3F3F3" stroke-linecap="round" stroke-linejoin="round"/>
</svg>
