<svg width="20" height="20" viewBox="0 0 20 20" fill="none" xmlns="http://www.w3.org/2000/svg">
<path d="M1.78867 10.6113C1.67194 10.4264 1.61358 10.334 1.58091 10.1915C1.55636 10.0844 1.55636 9.91556 1.58091 9.80849C1.61358 9.66595 1.67194 9.57354 1.78867 9.38872C2.75326 7.86137 5.62446 4.00024 10 4.00024C14.3755 4.00024 17.2467 7.86137 18.2113 9.38871C18.3281 9.57354 18.3864 9.66595 18.4191 9.80849C18.4436 9.91556 18.4436 10.0844 18.4191 10.1915C18.3864 10.334 18.3281 10.4264 18.2113 10.6113C17.2467 12.1386 14.3755 15.9997 10 15.9997C5.62446 15.9997 2.75326 12.1386 1.78867 10.6113Z" stroke="#F3F3F3" stroke-linecap="round" stroke-linejoin="round"/>
<path d="M10 12.5C11.3807 12.5 12.5 11.3807 12.5 10C12.5 8.61929 11.3807 7.5 10 7.5C8.61929 7.5 7.5 8.61929 7.5 10C7.5 11.3807 8.61929 12.5 10 12.5Z" stroke="#F3F3F3" stroke-linecap="round" stroke-linejoin="round"/>
</svg>
