<svg width="32" height="32" viewBox="0 0 32 32" fill="none" xmlns="http://www.w3.org/2000/svg">
<path d="M6.66681 18.6665H24.1811C25.5315 18.6665 26.2068 18.6665 26.7443 18.4147C27.2178 18.1929 27.6157 17.8368 27.8884 17.3907C28.198 16.8843 28.2726 16.2132 28.4217 14.871L29.2017 7.85096C29.2472 7.44101 29.27 7.23604 29.2041 7.07738C29.1462 6.93804 29.0428 6.82247 28.9107 6.74954C28.7603 6.6665 28.554 6.6665 28.1415 6.6665H24M6.00015 6.6665H11.3466M2.66663 2.6665H4.33121C4.68404 2.6665 4.86046 2.6665 4.99848 2.7336C5.11998 2.79267 5.22067 2.88727 5.28721 3.00485C5.36279 3.13842 5.37379 3.31449 5.3958 3.66663L6.60412 22.9997C6.62613 23.3519 6.63713 23.5279 6.71271 23.6615C6.77924 23.7791 6.87994 23.8737 7.00144 23.9327C7.13946 23.9998 7.31588 23.9998 7.66871 23.9998H25.3333M9.99996 28.6665H10.0133M22 28.6665H22.0133M10.6666 28.6665C10.6666 29.0347 10.3681 29.3332 9.99996 29.3332C9.63177 29.3332 9.33329 29.0347 9.33329 28.6665C9.33329 28.2983 9.63177 27.9998 9.99996 27.9998C10.3681 27.9998 10.6666 28.2983 10.6666 28.6665ZM22.6666 28.6665C22.6666 29.0347 22.3681 29.3332 22 29.3332C21.6318 29.3332 21.3333 29.0347 21.3333 28.6665C21.3333 28.2983 21.6318 27.9998 22 27.9998C22.3681 27.9998 22.6666 28.2983 22.6666 28.6665Z" stroke="#F3F3F3" stroke-width="2" stroke-linecap="round" stroke-linejoin="round"/>
<path d="M13.6 9.99984L17.6 13.9998M17.6 13.9998L21.6 9.99984M17.6 13.9998L17.6 4.6665" stroke="#F3F3F3" stroke-width="2" stroke-linecap="round" stroke-linejoin="round"/>
</svg>
