<svg width="32" height="32" viewBox="0 0 32 32" fill="none" xmlns="http://www.w3.org/2000/svg">
<path fill-rule="evenodd" clip-rule="evenodd" d="M29.3346 15.9993C29.3346 23.3631 23.3651 29.3327 16.0013 29.3327C8.63751 29.3327 2.66797 23.3631 2.66797 15.9993C2.66797 8.63555 8.63751 2.66602 16.0013 2.66602C23.3651 2.66602 29.3346 8.63555 29.3346 15.9993ZM16.9415 9.72451C16.4208 9.20381 15.5766 9.20381 15.0559 9.72451L9.72256 15.0578C9.20186 15.5785 9.20186 16.4228 9.72256 16.9435C10.2433 17.4642 11.0875 17.4642 11.6082 16.9435L14.6654 13.8863V21.334C14.6654 22.0704 15.2623 22.6673 15.9987 22.6673C16.7351 22.6673 17.332 22.0704 17.332 21.334V13.8863L20.3892 16.9435C20.9099 17.4642 21.7541 17.4642 22.2748 16.9435C22.7955 16.4228 22.7955 15.5785 22.2748 15.0578L16.9415 9.72451Z" fill="#F3F3F3"/>
</svg>
