<svg width="32" height="32" viewBox="0 0 32 32" fill="none" xmlns="http://www.w3.org/2000/svg">
<path fill-rule="evenodd" clip-rule="evenodd" d="M29.3346 16.0003C29.3346 23.3641 23.3651 29.3337 16.0013 29.3337C8.63751 29.3337 2.66797 23.3641 2.66797 16.0003C2.66797 8.63653 8.63751 2.66699 16.0013 2.66699C23.3651 2.66699 29.3346 8.63653 29.3346 16.0003ZM22.2748 16.9431L16.9415 22.2765C16.4208 22.7972 15.5766 22.7972 15.0559 22.2765L9.72256 16.9431C9.20186 16.4224 9.20186 15.5782 9.72256 15.0575C10.2433 14.5368 11.0875 14.5368 11.6082 15.0575L14.6654 18.1147V10.667C14.6654 9.93061 15.2623 9.33366 15.9987 9.33366C16.7351 9.33366 17.332 9.93061 17.332 10.667V18.1147L20.3892 15.0575C20.9099 14.5368 21.7541 14.5368 22.2748 15.0575C22.7955 15.5782 22.7955 16.4224 22.2748 16.9431Z" fill="#F3F3F3"/>
</svg>
