<svg width="32" height="34" viewBox="0 0 32 34" fill="none" xmlns="http://www.w3.org/2000/svg">
<path d="M18.6667 29.3332H13.3333M11.5107 5.37816C12.8261 4.48641 14.388 3.99988 16 3.99988C18.1217 3.99988 20.1566 4.84273 21.6568 6.34302C23.1571 7.84331 24 9.87815 24 11.9999C24 14.8009 24.3603 17.0015 24.8645 18.7098M8.34489 9.67619C8.11821 10.4229 8 11.2053 8 11.9999C8 16.1201 6.96063 18.9412 5.79955 20.8071C4.82017 22.381 4.33048 23.168 4.34843 23.3876C4.36832 23.6306 4.41981 23.7233 4.6157 23.8686C4.79261 23.9999 5.59012 23.9999 7.18514 23.9999H22.6667M28 29.3332L4 5.33321" stroke="#F3F3F3" stroke-width="2" stroke-linecap="round" stroke-linejoin="round"/>
</svg>
