<svg width="33" height="34" viewBox="0 0 33 34" fill="none" xmlns="http://www.w3.org/2000/svg">
<path d="M13.9853 29.3332H19.7075M24.652 11.9999C24.652 9.87815 23.8091 7.84331 22.3088 6.34302C20.8085 4.84273 18.7737 3.99988 16.652 3.99988C14.5303 3.99988 12.4954 4.84273 10.9951 6.34302C9.49484 7.84331 8.65198 9.87815 8.65198 11.9999C8.65198 16.1201 7.61261 18.9412 6.45154 20.8071C5.47215 22.381 4.98246 23.168 5.00042 23.3876C5.0203 23.6306 5.0718 23.7233 5.26768 23.8686C5.44459 23.9999 6.2421 23.9999 7.83712 23.9999H25.4668C27.0619 23.9999 27.8594 23.9999 28.0363 23.8686C28.2322 23.7233 28.2837 23.6306 28.3035 23.3876C28.3215 23.168 27.8318 22.381 26.8524 20.8071C25.6914 18.9412 24.652 16.1201 24.652 11.9999Z" stroke="#F3F3F3" stroke-width="2" stroke-linecap="round" stroke-linejoin="round"/>
</svg>
