<svg width="32" height="32" viewBox="0 0 32 32" fill="none" xmlns="http://www.w3.org/2000/svg">
<path d="M12.0995 23.392L10.0262 26.0681C10.0262 26.0681 4.82494 26.0377 1.40002 22.0895C2.00836 12.4106 5.38461 7.48908 5.38461 7.48908C7.32478 6.04005 9.61118 5.12546 12.0154 4.83667L13.1627 7.83233C14.0596 7.70048 14.903 7.64586 16 7.64586C17.1531 7.64586 17.9428 7.6968 18.8774 7.84053L19.9846 4.83667C23.5738 5.10434 26.6154 7.48908 26.6154 7.48908C26.6154 7.48908 29.9917 12.4167 30.6 22.0895C27.1751 26.0377 21.9739 26.0498 21.9739 26.0498L19.985 23.3756M6.13393 20.9587C8.2691 22.3997 11.3491 23.7442 16 23.7442C20.5457 23.7442 23.5907 22.4599 25.7196 21.0565M14.0108 16.7786C14.0108 18.2435 12.9704 19.431 11.6869 19.431C10.4035 19.431 9.36311 18.2435 9.36311 16.7786C9.36311 15.3137 10.4035 14.1262 11.6869 14.1262C12.9704 14.1262 14.0108 15.3137 14.0108 16.7786ZM22.6369 16.7786C22.6369 18.2435 21.5965 19.431 20.3131 19.431C19.0297 19.431 17.9893 18.2435 17.9893 16.7786C17.9893 15.3137 19.0297 14.1262 20.3131 14.1262C21.5965 14.1262 22.6369 15.3137 22.6369 16.7786Z" stroke="#F3F3F3" stroke-width="2" stroke-linecap="round" stroke-linejoin="round"/>
</svg>
