<svg width="32" height="33" viewBox="0 0 32 33" fill="none" xmlns="http://www.w3.org/2000/svg">
<path d="M20.0936 5.81372L19.7324 6.22509C24.097 7.55954 26.1237 9.48596 26.1237 9.48596C20.0234 6.14482 12.8595 6.14482 6.9398 8.74348C5.98662 9.18495 5.42475 9.48596 5.42475 9.48596C5.42475 9.48596 7.55184 7.4592 12.1773 6.12475L11.9164 5.81372C11.9164 5.81372 8.39465 5.73345 4.70234 8.51271C4.70234 8.51271 1 15.2151 1 23.4826C1 23.4826 3.15719 27.205 8.83612 27.3856C8.83612 27.3856 9.7893 26.2318 10.5619 25.2585C7.301 24.2853 6.06689 22.2284 6.06689 22.2284C6.44816 22.4893 7.07023 22.8405 7.1204 22.8706C11.4548 25.2987 17.6154 26.0913 23.1438 23.7736C24.0468 23.4425 25.0401 22.9508 26.0936 22.2585C26.0936 22.2585 24.8094 24.3656 21.4482 25.3187C22.2207 26.292 23.1438 27.3957 23.1438 27.3957C28.8227 27.2151 31 23.4926 31 23.4926C31 15.2251 27.2977 8.52275 27.2977 8.52275C23.6154 5.73345 20.0936 5.81372 20.0936 5.81372ZM11.214 21.0947C9.77926 21.0947 8.59532 19.8104 8.59532 18.2452C8.59532 16.6799 9.74916 15.3957 11.214 15.3957C12.6789 15.3957 13.8629 16.6799 13.8328 18.2452C13.8328 19.8104 12.6789 21.0947 11.214 21.0947ZM20.5853 21.0947C19.1505 21.0947 17.9666 19.8104 17.9666 18.2452C17.9666 16.6799 19.1204 15.3957 20.5853 15.3957C22.0502 15.3957 23.204 16.6799 23.204 18.2452C23.204 19.8104 22.0502 21.0947 20.5853 21.0947Z" fill="#F3F3F3"/>
</svg>
