<svg width="32" height="32" viewBox="0 0 32 32" fill="none" xmlns="http://www.w3.org/2000/svg">
<path d="M16 10.6679C15.6498 10.6678 15.3029 10.5988 14.9793 10.4646C14.6558 10.3305 14.3618 10.134 14.1141 9.8862C13.8665 9.63846 13.6701 9.34436 13.5361 9.02071C13.4022 8.69706 13.3333 8.3502 13.3334 7.99992C13.3335 7.64964 13.4025 7.30281 13.5367 6.97923C13.6708 6.65564 13.8673 6.36165 14.1151 6.11402C14.3628 5.8664 14.6569 5.67 14.9806 5.53604C15.3042 5.40207 15.6511 5.33316 16.0014 5.33325C16.7088 5.33343 17.3872 5.61462 17.8873 6.11497C18.3874 6.61531 18.6682 7.29383 18.668 8.00125C18.6679 8.70867 18.3867 9.38705 17.8863 9.88715C17.386 10.3872 16.7075 10.6681 16 10.6679ZM16 13.3346C16.3503 13.3347 16.6971 13.4038 17.0207 13.5379C17.3443 13.672 17.6383 13.8686 17.8859 14.1163C18.1336 14.364 18.33 14.6581 18.4639 14.9818C18.5979 15.3054 18.6668 15.6523 18.6667 16.0026C18.6666 16.3529 18.5975 16.6997 18.4634 17.0233C18.3293 17.3469 18.1327 17.6409 17.885 17.8885C17.6372 18.1361 17.3431 18.3325 17.0195 18.4665C16.6958 18.6004 16.349 18.6693 15.9987 18.6693C15.2913 18.6691 14.6129 18.3879 14.1128 17.8875C13.6127 17.3872 13.3319 16.7087 13.332 16.0013C13.3322 15.2938 13.6134 14.6155 14.1137 14.1154C14.6141 13.6153 15.2926 13.3344 16 13.3346ZM16 21.3346C16.3503 21.3347 16.6971 21.4038 17.0207 21.5379C17.3443 21.672 17.6383 21.8686 17.8859 22.1163C18.1336 22.364 18.33 22.6581 18.4639 22.9818C18.5979 23.3054 18.6668 23.6523 18.6667 24.0026C18.6666 24.3529 18.5975 24.6997 18.4634 25.0233C18.3293 25.3469 18.1327 25.6409 17.885 25.8885C17.6372 26.1361 17.3431 26.3325 17.0195 26.4665C16.6958 26.6004 16.349 26.6693 15.9987 26.6693C15.2913 26.6691 14.6129 26.3879 14.1128 25.8875C13.6127 25.3872 13.3319 24.7087 13.332 24.0013C13.3322 23.2938 13.6134 22.6155 14.1137 22.1154C14.6141 21.6153 15.2926 21.3344 16 21.3346Z" fill="#F3F3F3"/>
</svg>
