<svg width="32" height="32" viewBox="0 0 32 32" fill="none" xmlns="http://www.w3.org/2000/svg">
<path d="M18.6667 3.02603V8.53342C18.6667 9.28015 18.6667 9.65352 18.812 9.93874C18.9399 10.1896 19.1438 10.3936 19.3947 10.5214C19.6799 10.6667 20.0533 10.6667 20.8 10.6667H26.3074M26.6667 13.3177V22.9334C26.6667 25.1736 26.6667 26.2937 26.2307 27.1494C25.8472 27.902 25.2353 28.5139 24.4827 28.8974C23.627 29.3334 22.5069 29.3334 20.2667 29.3334H11.7334C9.49316 29.3334 8.37306 29.3334 7.51741 28.8974C6.76476 28.5139 6.15284 27.902 5.76935 27.1494C5.33337 26.2937 5.33337 25.1736 5.33337 22.9334V9.06675C5.33337 6.82654 5.33337 5.70643 5.76935 4.85079C6.15284 4.09814 6.76476 3.48622 7.51741 3.10272C8.37306 2.66675 9.49316 2.66675 11.7334 2.66675H16.0157C16.9941 2.66675 17.4833 2.66675 17.9436 2.77727C18.3518 2.87526 18.742 3.03687 19.0998 3.25619C19.5035 3.50355 19.8494 3.84946 20.5412 4.54126L24.7922 8.79223C25.484 9.48404 25.8299 9.82994 26.0773 10.2336C26.2966 10.5915 26.4582 10.9817 26.5562 11.3898C26.6667 11.8502 26.6667 12.3394 26.6667 13.3177Z" stroke="#F3F3F3" stroke-width="2" stroke-linecap="round" stroke-linejoin="round"/>
</svg>
