<svg width="32" height="32" viewBox="0 0 32 32" fill="none" xmlns="http://www.w3.org/2000/svg">
<path d="M17.0001 18.8519C17.0001 18.2996 16.5524 17.8519 16.0001 17.8519C15.4478 17.8519 15.0001 18.2996 15.0001 18.8519H17.0001ZM15.0001 21.1334C15.0001 21.6857 15.4478 22.1334 16.0001 22.1334C16.5524 22.1334 17.0001 21.6857 17.0001 21.1334H15.0001ZM20.8334 11.4371V13.7186H22.8334V11.4371H20.8334ZM11.1667 13.7186V11.4371H9.16675V13.7186H11.1667ZM16.0001 6.7334C18.6908 6.7334 20.8334 8.86038 20.8334 11.4371H22.8334C22.8334 7.71368 19.7527 4.7334 16.0001 4.7334V6.7334ZM16.0001 4.7334C12.2474 4.7334 9.16675 7.71368 9.16675 11.4371H11.1667C11.1667 8.86038 13.3094 6.7334 16.0001 6.7334V4.7334ZM15.0001 18.8519V21.1334H17.0001V18.8519H15.0001ZM9.00008 14.7186H23.0001V12.7186H9.00008V14.7186ZM24.3334 16.0001V23.9853H26.3334V16.0001H24.3334ZM23.0001 25.2667H9.00008V27.2667H23.0001V25.2667ZM7.66675 23.9853V16.0001H5.66675V23.9853H7.66675ZM9.00008 25.2667C8.2424 25.2667 7.66675 24.6719 7.66675 23.9853H5.66675C5.66675 25.8186 7.18044 27.2667 9.00008 27.2667V25.2667ZM24.3334 23.9853C24.3334 24.6719 23.7578 25.2667 23.0001 25.2667V27.2667C24.8197 27.2667 26.3334 25.8186 26.3334 23.9853H24.3334ZM23.0001 14.7186C23.7578 14.7186 24.3334 15.3134 24.3334 16.0001H26.3334C26.3334 14.1667 24.8197 12.7186 23.0001 12.7186V14.7186ZM9.00008 12.7186C7.18044 12.7186 5.66675 14.1667 5.66675 16.0001H7.66675C7.66675 15.3134 8.2424 14.7186 9.00008 14.7186V12.7186Z" fill="#F3F3F3"/>
</svg>
