<svg width="32" height="32" viewBox="0 0 32 32" fill="none" xmlns="http://www.w3.org/2000/svg">
<path d="M2.66699 9.33398L13.5536 16.9546C14.4351 17.5717 14.8759 17.8802 15.3553 17.9997C15.7789 18.1053 16.2218 18.1053 16.6453 17.9997C17.1248 17.8802 17.5655 17.5717 18.4471 16.9546L29.3337 9.33398M9.06699 26.6673H22.9337C25.1739 26.6673 26.294 26.6673 27.1496 26.2313C27.9023 25.8478 28.5142 25.2359 28.8977 24.4833C29.3337 23.6276 29.3337 22.5075 29.3337 20.2673V11.734C29.3337 9.49377 29.3337 8.37367 28.8977 7.51802C28.5142 6.76537 27.9023 6.15345 27.1496 5.76996C26.294 5.33398 25.1739 5.33398 22.9337 5.33398H9.06699C6.82678 5.33398 5.70668 5.33398 4.85103 5.76996C4.09838 6.15345 3.48646 6.76537 3.10297 7.51802C2.66699 8.37367 2.66699 9.49377 2.66699 11.734V20.2673C2.66699 22.5075 2.66699 23.6276 3.10297 24.4833C3.48646 25.2359 4.09838 25.8478 4.85103 26.2313C5.70668 26.6673 6.82678 26.6673 9.06699 26.6673Z" stroke="#F3F3F3" stroke-width="2" stroke-linecap="round" stroke-linejoin="round"/>
</svg>
