<svg width="32" height="32" viewBox="0 0 32 32" fill="none" xmlns="http://www.w3.org/2000/svg">
<path d="M6.66681 18.6666H24.1811C25.5315 18.6666 26.2068 18.6666 26.7443 18.4149C27.2178 18.1931 27.6157 17.837 27.8884 17.3908C28.198 16.8844 28.2726 16.2133 28.4217 14.8711L29.2017 7.85109C29.2472 7.44114 29.27 7.23616 29.2041 7.07751C29.1462 6.93817 29.0428 6.82259 28.9107 6.74966C28.7603 6.66663 28.554 6.66663 28.1415 6.66663H6.00015M2.66663 2.66663H4.33121C4.68404 2.66663 4.86046 2.66663 4.99848 2.73373C5.11998 2.7928 5.22067 2.88739 5.28721 3.00498C5.36279 3.13854 5.37379 3.31461 5.3958 3.66676L6.60412 22.9998C6.62613 23.352 6.63713 23.528 6.71271 23.6616C6.77924 23.7792 6.87994 23.8738 7.00144 23.9329C7.13946 24 7.31588 24 7.66871 24H25.3333M9.99996 28.6666H10.0133M22 28.6666H22.0133M10.6666 28.6666C10.6666 29.0348 10.3681 29.3333 9.99996 29.3333C9.63177 29.3333 9.33329 29.0348 9.33329 28.6666C9.33329 28.2984 9.63177 28 9.99996 28C10.3681 28 10.6666 28.2984 10.6666 28.6666ZM22.6666 28.6666C22.6666 29.0348 22.3681 29.3333 22 29.3333C21.6318 29.3333 21.3333 29.0348 21.3333 28.6666C21.3333 28.2984 21.6318 28 22 28C22.3681 28 22.6666 28.2984 22.6666 28.6666Z" stroke="#F3F3F3" stroke-width="2" stroke-linecap="round" stroke-linejoin="round"/>
</svg>
