<svg width="33" height="33" viewBox="0 0 33 33" fill="none" xmlns="http://www.w3.org/2000/svg">
<circle cx="16.5759" cy="16.5759" r="12.5758" stroke="#F3F3F3" stroke-width="2"/>
<path d="M15.3509 19.1927V19.0828C15.3586 18.3654 15.43 17.7946 15.565 17.3704C15.7038 16.9461 15.9005 16.6029 16.1551 16.3406C16.4096 16.0784 16.7162 15.8392 17.0749 15.6233C17.3063 15.4767 17.5146 15.3128 17.6997 15.1315C17.8848 14.9503 18.0314 14.742 18.1394 14.5067C18.2473 14.2715 18.3013 14.0111 18.3013 13.7257C18.3013 13.3825 18.2203 13.0855 18.0584 12.8348C17.8964 12.5841 17.6804 12.3913 17.4104 12.2563C17.1443 12.1175 16.8473 12.0481 16.5195 12.0481C16.2225 12.0481 15.9391 12.1098 15.6691 12.2332C15.3991 12.3566 15.1754 12.5494 14.998 12.8117C14.8206 13.0701 14.7184 13.4037 14.6914 13.8125H12.9327C12.9597 13.1183 13.1352 12.5321 13.4592 12.0538C13.7832 11.5718 14.2113 11.2073 14.7435 10.9605C15.2796 10.7136 15.8716 10.5902 16.5195 10.5902C17.2292 10.5902 17.8501 10.7233 18.3823 10.9894C18.9146 11.2516 19.3272 11.62 19.6203 12.0943C19.9173 12.5649 20.0658 13.1145 20.0658 13.7431C20.0658 14.1751 19.9983 14.5646 19.8633 14.9117C19.7283 15.2549 19.5355 15.5616 19.2848 15.8315C19.038 16.1015 18.741 16.3406 18.3939 16.5489C18.0661 16.7533 17.8 16.9654 17.5955 17.1853C17.395 17.4051 17.2484 17.6654 17.1559 17.9662C17.0633 18.2671 17.0132 18.6392 17.0055 19.0828V19.1927H15.3509ZM16.2245 22.71C15.9082 22.71 15.6363 22.5982 15.4088 22.3745C15.1812 22.147 15.0674 21.8731 15.0674 21.553C15.0674 21.2368 15.1812 20.9668 15.4088 20.7431C15.6363 20.5156 15.9082 20.4018 16.2245 20.4018C16.5369 20.4018 16.8068 20.5156 17.0344 20.7431C17.2658 20.9668 17.3815 21.2368 17.3815 21.553C17.3815 21.7651 17.3275 21.9599 17.2195 22.1373C17.1154 22.3109 16.9765 22.4497 16.803 22.5538C16.6294 22.658 16.4366 22.71 16.2245 22.71Z" fill="#F3F3F3"/>
</svg>
