<svg width="32" height="32" viewBox="0 0 32 32" fill="none" xmlns="http://www.w3.org/2000/svg">
<path d="M7.0897 25.9182C7.9008 24.0073 9.79453 22.667 12.0013 22.667H20.0013C22.2081 22.667 24.1018 24.0073 24.9129 25.9182M21.3346 12.667C21.3346 15.6125 18.9468 18.0003 16.0013 18.0003C13.0558 18.0003 10.668 15.6125 10.668 12.667C10.668 9.72147 13.0558 7.33366 16.0013 7.33366C18.9468 7.33366 21.3346 9.72147 21.3346 12.667ZM29.3346 16.0003C29.3346 23.3641 23.3651 29.3337 16.0013 29.3337C8.6375 29.3337 2.66797 23.3641 2.66797 16.0003C2.66797 8.63653 8.6375 2.66699 16.0013 2.66699C23.3651 2.66699 29.3346 8.63653 29.3346 16.0003Z" stroke="#F3F3F3" stroke-width="2" stroke-linecap="round" stroke-linejoin="round"/>
</svg>
