<svg width="32" height="32" viewBox="0 0 32 32" fill="none" xmlns="http://www.w3.org/2000/svg">
<path d="M2.86187 16.978C2.6751 16.6823 2.58172 16.5344 2.52945 16.3064C2.49018 16.1351 2.49018 15.8649 2.52945 15.6936C2.58172 15.4655 2.6751 15.3177 2.86187 15.0219C4.40522 12.5782 8.99914 6.40039 16 6.40039C23.0009 6.40039 27.5948 12.5782 29.1381 15.0219C29.3249 15.3177 29.4183 15.4655 29.4706 15.6936C29.5098 15.8649 29.5098 16.1351 29.4706 16.3064C29.4183 16.5344 29.3249 16.6823 29.1381 16.978C27.5948 19.4218 23.0009 25.5996 16 25.5996C8.99914 25.5996 4.40522 19.4218 2.86187 16.978Z" stroke="#F3F3F3" stroke-width="2" stroke-linecap="round" stroke-linejoin="round"/>
<path d="M16 20C18.2091 20 20 18.2091 20 16C20 13.7909 18.2091 12 16 12C13.7909 12 12 13.7909 12 16C12 18.2091 13.7909 20 16 20Z" stroke="#F3F3F3" stroke-width="2" stroke-linecap="round" stroke-linejoin="round"/>
</svg>
