<svg width="24" height="24" viewBox="0 0 24 24" fill="none" xmlns="http://www.w3.org/2000/svg">
<g clip-path="url(#clip0_60_3701)">
<path fill-rule="evenodd" clip-rule="evenodd" d="M22.001 12.0002C22.001 17.5231 17.5238 22.0002 12.001 22.0002C6.47813 22.0002 2.00098 17.5231 2.00098 12.0002C2.00098 6.4774 6.47813 2.00024 12.001 2.00024C17.5238 2.00024 22.001 6.4774 22.001 12.0002ZM16.7061 12.7074L12.7061 16.7074C12.3156 17.0979 11.6824 17.0979 11.2919 16.7074L7.29192 12.7074C6.90139 12.3168 6.90139 11.6837 7.29192 11.2931C7.68244 10.9026 8.31561 10.9026 8.70613 11.2931L10.999 13.586V8.00024C10.999 7.44796 11.4467 7.00024 11.999 7.00024C12.5513 7.00024 12.999 7.44796 12.999 8.00024V13.586L15.2919 11.2931C15.6824 10.9026 16.3156 10.9026 16.7061 11.2931C17.0967 11.6837 17.0967 12.3168 16.7061 12.7074Z" fill="#F3F3F3"/>
</g>
<defs>
<clipPath id="clip0_60_3701">
<rect width="24" height="24" fill="white"/>
</clipPath>
</defs>
</svg>
