<svg width="24" height="24" viewBox="0 0 24 24" fill="none" xmlns="http://www.w3.org/2000/svg">
<g clip-path="url(#clip0_60_3690)">
<path fill-rule="evenodd" clip-rule="evenodd" d="M22.001 11.9995C22.001 17.5224 17.5238 21.9995 12.001 21.9995C6.47813 21.9995 2.00098 17.5224 2.00098 11.9995C2.00098 6.47666 6.47813 1.99951 12.001 1.99951C17.5238 1.99951 22.001 6.47666 22.001 11.9995ZM12.7061 7.29338C12.3156 6.90286 11.6824 6.90286 11.2919 7.29338L7.29192 11.2934C6.90139 11.6839 6.90139 12.3171 7.29192 12.7076C7.68244 13.0981 8.31561 13.0981 8.70613 12.7076L10.999 10.4147V16.0005C10.999 16.5528 11.4467 17.0005 11.999 17.0005C12.5513 17.0005 12.999 16.5528 12.999 16.0005V10.4147L15.2919 12.7076C15.6824 13.0981 16.3156 13.0981 16.7061 12.7076C17.0967 12.3171 17.0967 11.6839 16.7061 11.2934L12.7061 7.29338Z" fill="#F3F3F3"/>
</g>
<defs>
<clipPath id="clip0_60_3690">
<rect width="24" height="24" fill="white"/>
</clipPath>
</defs>
</svg>
