<svg width="24" height="24" viewBox="0 0 24 24" fill="none" xmlns="http://www.w3.org/2000/svg">
<g clip-path="url(#clip0_88_3752)">
<path d="M9.99994 21.5H14.2916M18 8.5C18 6.9087 17.3678 5.38258 16.2426 4.25736C15.1174 3.13214 13.5913 2.5 12 2.5C10.4087 2.5 8.88254 3.13214 7.75732 4.25736C6.6321 5.38258 5.99996 6.9087 5.99996 8.5C5.99996 11.5902 5.22043 13.706 4.34962 15.1054C3.61508 16.2859 3.24782 16.8761 3.26128 17.0408C3.27619 17.2231 3.31482 17.2926 3.46173 17.4016C3.59442 17.5 4.19255 17.5 5.38881 17.5H18.6111C19.8074 17.5 20.4055 17.5 20.5382 17.4016C20.6851 17.2926 20.7237 17.2231 20.7386 17.0408C20.7521 16.8761 20.3848 16.2859 19.6503 15.1054C18.7795 13.706 18 11.5902 18 8.5Z" stroke="#F3F3F3" stroke-linecap="round" stroke-linejoin="round"/>
</g>
<defs>
<clipPath id="clip0_88_3752">
<rect width="24" height="24" fill="white"/>
</clipPath>
</defs>
</svg>
