<svg width="24" height="24" viewBox="0 0 24 24" fill="none" xmlns="http://www.w3.org/2000/svg">
<g clip-path="url(#clip0_88_3751)">
<path d="M14 21.5H10M8.63306 3.53371C9.61959 2.8649 10.791 2.5 12 2.5C13.5913 2.5 15.1174 3.13214 16.2426 4.25736C17.3679 5.38258 18 6.9087 18 8.5C18 10.6008 18.2702 12.2512 18.6484 13.5324M6.25867 6.75723C6.08866 7.31726 6 7.90406 6 8.5C6 11.5902 5.22047 13.706 4.34966 15.1054C3.61513 16.2859 3.24786 16.8761 3.26132 17.0408C3.27624 17.2231 3.31486 17.2926 3.46178 17.4016C3.59446 17.5 4.19259 17.5 5.38885 17.5H17M21 21.5L3 3.5" stroke="#F3F3F3" stroke-linecap="round" stroke-linejoin="round"/>
</g>
<defs>
<clipPath id="clip0_88_3751">
<rect width="24" height="24" fill="white"/>
</clipPath>
</defs>
</svg>
