<svg width="24" height="24" viewBox="0 0 24 24" fill="none" xmlns="http://www.w3.org/2000/svg">
<path d="M9.07469 17.5439L7.51967 19.551C7.51967 19.551 3.61874 19.5282 1.05005 16.567C1.5063 9.30791 4.03849 5.61675 4.03849 5.61675C5.49362 4.52997 7.20842 3.84403 9.01161 3.62744L9.87208 5.87419C10.5448 5.7753 11.1773 5.73433 12 5.73433C12.8649 5.73433 13.4572 5.77254 14.1581 5.88034L14.9885 3.62744C17.6804 3.8282 19.9616 5.61675 19.9616 5.61675C19.9616 5.61675 22.4938 9.31247 22.9501 16.567C20.3814 19.5282 16.4804 19.5373 16.4804 19.5373L14.9888 17.5316M4.60048 15.719C6.20186 16.7997 8.51183 17.8081 12 17.8081C15.4093 17.8081 17.693 16.8448 19.2897 15.7923M10.5081 12.5839C10.5081 13.6825 9.7278 14.5732 8.76524 14.5732C7.80267 14.5732 7.02236 13.6825 7.02236 12.5839C7.02236 11.4852 7.80267 10.5946 8.76524 10.5946C9.7278 10.5946 10.5081 11.4852 10.5081 12.5839ZM16.9777 12.5839C16.9777 13.6825 16.1974 14.5732 15.2349 14.5732C14.2723 14.5732 13.492 13.6825 13.492 12.5839C13.492 11.4852 14.2723 10.5946 15.2349 10.5946C16.1974 10.5946 16.9777 11.4852 16.9777 12.5839Z" stroke="#F3F3F3" stroke-linecap="round" stroke-linejoin="round"/>
</svg>
