<svg width="24" height="24" viewBox="0 0 24 24" fill="none" xmlns="http://www.w3.org/2000/svg">
<path d="M12 8.001C11.7373 8.00093 11.4772 7.94913 11.2345 7.84853C10.9918 7.74794 10.7713 7.60052 10.5856 7.41471C10.3999 7.2289 10.2526 7.00833 10.1521 6.7656C10.0516 6.52286 9.99996 6.26271 10 6C10.0001 5.73729 10.0519 5.47717 10.1525 5.23448C10.2531 4.99179 10.4005 4.7713 10.5863 4.58558C10.7721 4.39986 10.9927 4.25256 11.2354 4.15209C11.4782 4.05161 11.7383 3.99993 12.001 4C12.5316 4.00013 13.0404 4.21103 13.4154 4.58629C13.7905 4.96155 14.0012 5.47043 14.001 6.001C14.0009 6.53157 13.79 7.04035 13.4147 7.41542C13.0395 7.79049 12.5306 8.00113 12 8.001ZM12 10.001C12.2627 10.0011 12.5229 10.0529 12.7655 10.1535C13.0082 10.2541 13.2287 10.4015 13.4144 10.5873C13.6002 10.7731 13.7475 10.9937 13.8479 11.2364C13.9484 11.4791 14.0001 11.7393 14 12.002C14 12.2647 13.9481 12.5248 13.8476 12.7675C13.747 13.0102 13.5995 13.2307 13.4137 13.4164C13.2279 13.6021 13.0074 13.7494 12.7646 13.8499C12.5219 13.9504 12.2617 14.0021 11.999 14.002C11.4685 14.0019 10.9597 13.791 10.5846 13.4157C10.2095 13.0405 9.99889 12.5316 9.99902 12.001C9.99916 11.4704 10.21 10.9617 10.5853 10.5866C10.9606 10.2115 11.4695 10.0009 12 10.001ZM12 16.001C12.2627 16.0011 12.5229 16.0529 12.7655 16.1535C13.0082 16.2541 13.2287 16.4015 13.4144 16.5873C13.6002 16.7731 13.7475 16.9937 13.8479 17.2364C13.9484 17.4791 14.0001 17.7393 14 18.002C14 18.2647 13.9481 18.5248 13.8476 18.7675C13.747 19.0102 13.5995 19.2307 13.4137 19.4164C13.2279 19.6021 13.0074 19.7494 12.7646 19.8499C12.5219 19.9504 12.2617 20.0021 11.999 20.002C11.4685 20.0019 10.9597 19.791 10.5846 19.4157C10.2095 19.0405 9.99889 18.5316 9.99902 18.001C9.99916 17.4704 10.21 16.9617 10.5853 16.5866C10.9606 16.2115 11.4695 16.0009 12 16.001Z" fill="#F3F3F3"/>
</svg>
