<svg width="24" height="24" viewBox="0 0 24 24" fill="none" xmlns="http://www.w3.org/2000/svg">
<g clip-path="url(#clip0_54_3771)">
<path d="M12.5 14.1389C12.5 13.8628 12.2761 13.6389 12 13.6389C11.7239 13.6389 11.5 13.8628 11.5 14.1389H12.5ZM11.5 15.85C11.5 16.1262 11.7239 16.35 12 16.35C12.2761 16.35 12.5 16.1262 12.5 15.85H11.5ZM15.875 8.57783V10.2889H16.875V8.57783H15.875ZM8.125 10.2889V8.57783H7.125V10.2889H8.125ZM12 4.80005C14.1508 4.80005 15.875 6.50195 15.875 8.57783H16.875C16.875 5.9286 14.6817 3.80005 12 3.80005V4.80005ZM12 3.80005C9.31826 3.80005 7.125 5.9286 7.125 8.57783H8.125C8.125 6.50195 9.84924 4.80005 12 4.80005V3.80005ZM11.5 14.1389V15.85H12.5V14.1389H11.5ZM6.75 10.7889H17.25V9.78894H6.75V10.7889ZM18.5 12V17.9889H19.5V12H18.5ZM17.25 19.2H6.75V20.2H17.25V19.2ZM5.5 17.9889V12H4.5V17.9889H5.5ZM6.75 19.2C6.04899 19.2 5.5 18.6473 5.5 17.9889H4.5C4.5 19.2206 5.51801 20.2 6.75 20.2V19.2ZM18.5 17.9889C18.5 18.6473 17.951 19.2 17.25 19.2V20.2C18.482 20.2 19.5 19.2206 19.5 17.9889H18.5ZM17.25 10.7889C17.951 10.7889 18.5 11.3417 18.5 12H19.5C19.5 10.7684 18.482 9.78894 17.25 9.78894V10.7889ZM6.75 9.78894C5.51801 9.78894 4.5 10.7684 4.5 12H5.5C5.5 11.3417 6.04899 10.7889 6.75 10.7889V9.78894Z" fill="#F3F3F3"/>
</g>
<defs>
<clipPath id="clip0_54_3771">
<rect width="24" height="24" fill="white"/>
</clipPath>
</defs>
</svg>
