<svg width="24" height="24" viewBox="0 0 24 24" fill="none" xmlns="http://www.w3.org/2000/svg">
<path d="M2.00024 7.00049L10.1652 12.7159C10.8263 13.1788 11.1569 13.4102 11.5165 13.4998C11.8341 13.579 12.1663 13.579 12.484 13.4998C12.8436 13.4102 13.1742 13.1788 13.8353 12.7159L22.0002 7.00049M6.80024 20.0005H17.2002C18.8804 20.0005 19.7205 20.0005 20.3622 19.6735C20.9267 19.3859 21.3856 18.9269 21.6733 18.3625C22.0002 17.7207 22.0002 16.8806 22.0002 15.2005V8.80049C22.0002 7.12033 22.0002 6.28025 21.6733 5.63852C21.3856 5.07403 20.9267 4.61509 20.3622 4.32747C19.7205 4.00049 18.8804 4.00049 17.2002 4.00049H6.80024C5.12009 4.00049 4.28001 4.00049 3.63827 4.32747C3.07379 4.61509 2.61484 5.07403 2.32722 5.63852C2.00024 6.28025 2.00024 7.12033 2.00024 8.80049V15.2005C2.00024 16.8806 2.00024 17.7207 2.32722 18.3625C2.61484 18.9269 3.07379 19.3859 3.63827 19.6735C4.28001 20.0005 5.12009 20.0005 6.80024 20.0005Z" stroke="#F3F3F3" stroke-linecap="round" stroke-linejoin="round"/>
</svg>
