<svg width="24" height="24" viewBox="0 0 24 24" fill="none" xmlns="http://www.w3.org/2000/svg">
<circle cx="12.0001" cy="11.9999" r="9.68182" stroke="#F3F3F3"/>
<path d="M11.0813 13.9626V13.8802C11.0871 13.3421 11.1406 12.914 11.2419 12.5959C11.346 12.2777 11.4935 12.0202 11.6844 11.8236C11.8753 11.6269 12.1053 11.4475 12.3743 11.2855C12.5479 11.1756 12.7041 11.0527 12.8429 10.9167C12.9818 10.7808 13.0917 10.6246 13.1727 10.4481C13.2537 10.2717 13.2941 10.0764 13.2941 9.8624C13.2941 9.60496 13.2334 9.38223 13.1119 9.19421C12.9904 9.0062 12.8284 8.86157 12.626 8.76033C12.4264 8.6562 12.2037 8.60413 11.9578 8.60413C11.7351 8.60413 11.5225 8.65041 11.32 8.74297C11.1175 8.83554 10.9497 8.98016 10.8167 9.17686C10.6836 9.37066 10.607 9.62087 10.5867 9.92748H9.2677C9.28795 9.40682 9.41956 8.96715 9.66253 8.60847C9.90551 8.2469 10.2266 7.97355 10.6258 7.78843C11.0278 7.6033 11.4718 7.51074 11.9578 7.51074C12.49 7.51074 12.9557 7.61054 13.3549 7.81012C13.7541 8.00682 14.0636 8.28306 14.2834 8.63884C14.5061 8.99173 14.6175 9.40392 14.6175 9.87541C14.6175 10.1994 14.5669 10.4915 14.4656 10.7519C14.3644 11.0093 14.2198 11.2393 14.0318 11.4417C13.8466 11.6442 13.6239 11.8236 13.3636 11.9798C13.1177 12.1331 12.9181 12.2921 12.7648 12.457C12.6144 12.6219 12.5045 12.8171 12.4351 13.0428C12.3656 13.2684 12.328 13.5475 12.3222 13.8802V13.9626H11.0813ZM11.7365 16.6006C11.4993 16.6006 11.2954 16.5167 11.1247 16.349C10.9541 16.1783 10.8687 15.9729 10.8687 15.7329C10.8687 15.4957 10.9541 15.2932 11.1247 15.1254C11.2954 14.9548 11.4993 14.8694 11.7365 14.8694C11.9708 14.8694 12.1733 14.9548 12.3439 15.1254C12.5175 15.2932 12.6043 15.4957 12.6043 15.7329C12.6043 15.8919 12.5638 16.038 12.4828 16.1711C12.4047 16.3012 12.3006 16.4054 12.1704 16.4835C12.0402 16.5616 11.8956 16.6006 11.7365 16.6006Z" fill="#F3F3F3"/>
</svg>
