<svg width="24" height="24" viewBox="0 0 24 24" fill="none" xmlns="http://www.w3.org/2000/svg">
<g clip-path="url(#clip0_22_3408)">
<path d="M5.31727 19.4386C5.9256 18.0054 7.3459 17.0002 9.00098 17.0002H15.001C16.6561 17.0002 18.0764 18.0055 18.6847 19.4387M16.001 9.50024C16.001 11.7094 14.2101 13.5002 12.001 13.5002C9.79184 13.5002 8.00098 11.7094 8.00098 9.50024C8.00098 7.29111 9.79184 5.50024 12.001 5.50024C14.2101 5.50024 16.001 7.29111 16.001 9.50024ZM22.001 12.0002C22.001 17.5231 17.5238 22.0002 12.001 22.0002C6.47813 22.0002 2.00098 17.5231 2.00098 12.0002C2.00098 6.4774 6.47813 2.00024 12.001 2.00024C17.5238 2.00024 22.001 6.4774 22.001 12.0002Z" stroke="#F3F3F3" stroke-linecap="round" stroke-linejoin="round"/>
</g>
<defs>
<clipPath id="clip0_22_3408">
<rect width="24" height="24" fill="white"/>
</clipPath>
</defs>
</svg>
