<svg width="24" height="24" viewBox="0 0 24 24" fill="none" xmlns="http://www.w3.org/2000/svg">
<path d="M2.1464 12.7335C2.00633 12.5117 1.93629 12.4008 1.89709 12.2298C1.86764 12.1013 1.86764 11.8987 1.89709 11.7702C1.93629 11.5991 2.00633 11.4882 2.1464 11.2665C3.30391 9.43364 6.74935 4.80029 12 4.80029C17.2506 4.80029 20.6961 9.43364 21.8536 11.2665C21.9937 11.4882 22.0637 11.5991 22.1029 11.7702C22.1324 11.8987 22.1324 12.1013 22.1029 12.2298C22.0637 12.4008 21.9937 12.5117 21.8536 12.7335C20.6961 14.5663 17.2506 19.1997 12 19.1997C6.74935 19.1997 3.30391 14.5663 2.1464 12.7335Z" stroke="#F3F3F3" stroke-linecap="round" stroke-linejoin="round"/>
<path d="M12 15C13.6569 15 15 13.6569 15 12C15 10.3431 13.6569 9 12 9C10.3431 9 9 10.3431 9 12C9 13.6569 10.3431 15 12 15Z" stroke="#F3F3F3" stroke-linecap="round" stroke-linejoin="round"/>
</svg>
