<svg width="16" height="16" viewBox="0 0 16 16" fill="none" xmlns="http://www.w3.org/2000/svg">
<g clip-path="url(#clip0_312_23140)">
<path d="M3.33341 9.33331H12.0906C12.7658 9.33331 13.1034 9.33331 13.3721 9.20743C13.6089 9.09653 13.8078 8.91848 13.9442 8.69542C14.099 8.4422 14.1363 8.10665 14.2108 7.43557L14.6008 3.92554C14.6236 3.72057 14.635 3.61808 14.602 3.53875C14.5731 3.46908 14.5214 3.41129 14.4553 3.37483C14.3801 3.33331 14.277 3.33331 14.0708 3.33331H12M3.00007 3.33331H5.67331M1.33331 1.33331H2.16561C2.34202 1.33331 2.43023 1.33331 2.49924 1.36686C2.55999 1.3964 2.61034 1.4437 2.6436 1.50249C2.68139 1.56927 2.6869 1.65731 2.6979 1.83338L3.30206 11.4999C3.31306 11.676 3.31857 11.764 3.35635 11.8308C3.38962 11.8896 3.43997 11.9369 3.50072 11.9664C3.56973 12 3.65794 12 3.83435 12H12.6666M4.99998 14.3333H5.00665M11 14.3333H11.0066M5.33331 14.3333C5.33331 14.5174 5.18407 14.6666 4.99998 14.6666C4.81588 14.6666 4.66665 14.5174 4.66665 14.3333C4.66665 14.1492 4.81588 14 4.99998 14C5.18407 14 5.33331 14.1492 5.33331 14.3333ZM11.3333 14.3333C11.3333 14.5174 11.1841 14.6666 11 14.6666C10.8159 14.6666 10.6666 14.5174 10.6666 14.3333C10.6666 14.1492 10.8159 14 11 14C11.1841 14 11.3333 14.1492 11.3333 14.3333Z" stroke="#F3F3F3" stroke-linecap="round" stroke-linejoin="round"/>
<path d="M6.79999 4.99998L8.79999 6.99998M8.79999 6.99998L10.8 4.99998M8.79999 6.99998L8.79999 2.33331" stroke="#F3F3F3" stroke-linecap="round" stroke-linejoin="round"/>
</g>
<defs>
<clipPath id="clip0_312_23140">
<rect width="16" height="16" fill="white"/>
</clipPath>
</defs>
</svg>
