<svg width="16" height="16" viewBox="0 0 16 16" fill="none" xmlns="http://www.w3.org/2000/svg">
<path fill-rule="evenodd" clip-rule="evenodd" d="M14.6673 7.99967C14.6673 11.6816 11.6825 14.6663 8.00065 14.6663C4.31875 14.6663 1.33398 11.6816 1.33398 7.99967C1.33398 4.31778 4.31875 1.33301 8.00065 1.33301C11.6825 1.33301 14.6673 4.31778 14.6673 7.99967ZM8.47075 4.86225C8.2104 4.6019 7.78829 4.6019 7.52794 4.86225L4.86128 7.52892C4.60093 7.78927 4.60093 8.21138 4.86128 8.47173C5.12163 8.73208 5.54374 8.73208 5.80409 8.47173L7.33268 6.94313V10.667C7.33268 11.0352 7.63116 11.3337 7.99935 11.3337C8.36754 11.3337 8.66602 11.0352 8.66602 10.667V6.94313L10.1946 8.47173C10.455 8.73208 10.8771 8.73208 11.1374 8.47173C11.3978 8.21138 11.3978 7.78927 11.1374 7.52892L8.47075 4.86225Z" fill="#F3F3F3"/>
</svg>
