<svg width="16" height="16" viewBox="0 0 16 16" fill="none" xmlns="http://www.w3.org/2000/svg">
<path fill-rule="evenodd" clip-rule="evenodd" d="M14.6673 8.00016C14.6673 11.6821 11.6825 14.6668 8.00065 14.6668C4.31875 14.6668 1.33398 11.6821 1.33398 8.00016C1.33398 4.31826 4.31875 1.3335 8.00065 1.3335C11.6825 1.3335 14.6673 4.31826 14.6673 8.00016ZM11.1374 8.47157L8.47075 11.1382C8.2104 11.3986 7.78829 11.3986 7.52794 11.1382L4.86128 8.47157C4.60093 8.21122 4.60093 7.78911 4.86128 7.52876C5.12163 7.26841 5.54374 7.26841 5.80409 7.52876L7.33268 9.05735V5.3335C7.33268 4.96531 7.63116 4.66683 7.99935 4.66683C8.36754 4.66683 8.66602 4.96531 8.66602 5.3335V9.05735L10.1946 7.52876C10.455 7.26841 10.8771 7.26841 11.1374 7.52876C11.3978 7.78911 11.3978 8.21122 11.1374 8.47157Z" fill="#F3F3F3"/>
</svg>
