<svg width="17" height="17" viewBox="0 0 17 17" fill="none" xmlns="http://www.w3.org/2000/svg">
<path d="M6.84058 15H9.70168M12.1739 6.33337C12.1739 5.27251 11.7525 4.25509 11.0024 3.50495C10.2522 2.7548 9.23479 2.33337 8.17392 2.33337C7.11306 2.33337 6.09564 2.7548 5.34549 3.50495C4.59535 4.25509 4.17392 5.27251 4.17392 6.33337C4.17392 8.3935 3.65424 9.80401 3.0737 10.737C2.58401 11.524 2.33916 11.9174 2.34814 12.0272C2.35808 12.1488 2.38383 12.1951 2.48177 12.2678C2.57023 12.3334 2.96898 12.3334 3.76649 12.3334H12.5814C13.3789 12.3334 13.7776 12.3334 13.8661 12.2678C13.964 12.1951 13.9898 12.1488 13.9997 12.0272C14.0087 11.9174 13.7638 11.524 13.2741 10.737C12.6936 9.80401 12.1739 8.3935 12.1739 6.33337Z" stroke="#F3F3F3" stroke-linecap="round" stroke-linejoin="round"/>
</svg>
