<svg width="16" height="16" viewBox="0 0 16 16" fill="none" xmlns="http://www.w3.org/2000/svg">
<path d="M9.33333 14.3334H6.66667M5.75537 2.35583C6.41306 1.90995 7.19399 1.66669 8 1.66669C9.06086 1.66669 10.0783 2.08811 10.8284 2.83826C11.5786 3.58841 12 4.60582 12 5.66669C12 7.0672 12.1801 8.1675 12.4323 9.02163M4.17245 4.50484C4.05911 4.87819 4 5.26939 4 5.66669C4 7.72681 3.48031 9.13732 2.89978 10.0703C2.41008 10.8573 2.16524 11.2508 2.17422 11.3605C2.18416 11.4821 2.20991 11.5284 2.30785 11.6011C2.39631 11.6667 2.79506 11.6667 3.59257 11.6667H11.3333M14 14.3334L2 2.33335" stroke="#F3F3F3" stroke-linecap="round" stroke-linejoin="round"/>
</svg>
