<svg width="16" height="16" viewBox="0 0 16 16" fill="none" xmlns="http://www.w3.org/2000/svg">
<path d="M6.04977 11.696L5.0131 13.0341C5.0131 13.0341 2.41247 13.0189 0.700012 11.0448C1.00418 6.20538 2.6923 3.7446 2.6923 3.7446C3.66239 3.02008 4.80559 2.56279 6.00772 2.4184L6.58137 3.91623C7.02982 3.8503 7.45151 3.82299 8.00001 3.82299C8.57656 3.82299 8.97142 3.84846 9.43872 3.92033L9.9923 2.4184C11.7869 2.55223 13.3077 3.7446 13.3077 3.7446C13.3077 3.7446 14.9958 6.20842 15.3 11.0448C13.5876 13.0189 10.9869 13.025 10.9869 13.025L9.99251 11.6878M3.06696 10.4794C4.13455 11.1999 5.67453 11.8722 8.00001 11.8722C10.2728 11.8722 11.7953 11.23 12.8598 10.5283M7.00539 8.38935C7.00539 9.12179 6.48518 9.71556 5.84347 9.71556C5.20176 9.71556 4.68155 9.12179 4.68155 8.38935C4.68155 7.65691 5.20176 7.06315 5.84347 7.06315C6.48518 7.06315 7.00539 7.65691 7.00539 8.38935ZM11.3185 8.38935C11.3185 9.12179 10.7983 9.71556 10.1566 9.71556C9.51484 9.71556 8.99464 9.12179 8.99464 8.38935C8.99464 7.65691 9.51484 7.06315 10.1566 7.06315C10.7983 7.06315 11.3185 7.65691 11.3185 8.38935Z" stroke="#F3F3F3" stroke-linecap="round" stroke-linejoin="round"/>
</svg>
