<svg width="16" height="16" viewBox="0 0 16 16" fill="none" xmlns="http://www.w3.org/2000/svg">
<path d="M8.00002 5.33402C7.82488 5.33398 7.65146 5.29944 7.48967 5.23237C7.32788 5.16531 7.18088 5.06704 7.05707 4.94316C6.93326 4.81929 6.83506 4.67224 6.76807 4.51042C6.70109 4.34859 6.66664 4.17516 6.66668 4.00002C6.66673 3.82488 6.70127 3.65146 6.76833 3.48967C6.83539 3.32788 6.93367 3.18088 7.05754 3.05707C7.18141 2.93326 7.32846 2.83506 7.49029 2.76808C7.65211 2.7011 7.82554 2.66664 8.00068 2.66669C8.35439 2.66678 8.69358 2.80737 8.94363 3.05754C9.19368 3.30772 9.3341 3.64698 9.33402 4.00069C9.33393 4.3544 9.19333 4.69359 8.94316 4.94363C8.69299 5.19368 8.35373 5.33411 8.00002 5.33402ZM8.00002 6.66735C8.17516 6.6674 8.34857 6.70194 8.51036 6.769C8.67215 6.83606 8.81915 6.93434 8.94296 7.05821C9.06678 7.18209 9.16498 7.32913 9.23196 7.49096C9.29894 7.65278 9.33339 7.82622 9.33335 8.00135C9.33331 8.17649 9.29877 8.34991 9.2317 8.5117C9.16464 8.67349 9.06637 8.82049 8.94249 8.9443C8.81862 9.06811 8.67157 9.16631 8.50975 9.2333C8.34792 9.30028 8.17449 9.33473 7.99935 9.33469C7.64564 9.3346 7.30645 9.194 7.0564 8.94383C6.80635 8.69366 6.66593 8.3544 6.66602 8.00069C6.6661 7.64698 6.8067 7.30779 7.05687 7.05774C7.30705 6.80769 7.64631 6.66727 8.00002 6.66735ZM8.00002 10.6674C8.17516 10.6674 8.34857 10.7019 8.51036 10.769C8.67215 10.8361 8.81915 10.9343 8.94296 11.0582C9.06678 11.1821 9.16498 11.3291 9.23196 11.491C9.29894 11.6528 9.33339 11.8262 9.33335 12.0014C9.33331 12.1765 9.29877 12.3499 9.2317 12.5117C9.16464 12.6735 9.06637 12.8205 8.94249 12.9443C8.81862 13.0681 8.67157 13.1663 8.50975 13.2333C8.34792 13.3003 8.17449 13.3347 7.99935 13.3347C7.64564 13.3346 7.30645 13.194 7.0564 12.9438C6.80635 12.6937 6.66593 12.3544 6.66602 12.0007C6.6661 11.647 6.8067 11.3078 7.05687 11.0577C7.30705 10.8077 7.64631 10.6673 8.00002 10.6674Z" fill="#F3F3F3"/>
</svg>
