<svg width="16" height="16" viewBox="0 0 16 16" fill="none" xmlns="http://www.w3.org/2000/svg">
<path d="M9.33335 1.51295V4.26665C9.33335 4.64002 9.33335 4.8267 9.40602 4.96931C9.46993 5.09475 9.57192 5.19674 9.69736 5.26065C9.83997 5.33331 10.0267 5.33331 10.4 5.33331H13.1537M13.3334 6.6588V11.4666C13.3334 12.5868 13.3334 13.1468 13.1154 13.5746C12.9236 13.951 12.6177 14.2569 12.2413 14.4487C11.8135 14.6666 11.2535 14.6666 10.1334 14.6666H5.86669C4.74658 14.6666 4.18653 14.6666 3.75871 14.4487C3.38238 14.2569 3.07642 13.951 2.88467 13.5746C2.66669 13.1468 2.66669 12.5868 2.66669 11.4666V4.53331C2.66669 3.41321 2.66669 2.85316 2.88467 2.42533C3.07642 2.04901 3.38238 1.74305 3.75871 1.5513C4.18653 1.33331 4.74658 1.33331 5.86669 1.33331H8.00787C8.49705 1.33331 8.74164 1.33331 8.97182 1.38857C9.17589 1.43757 9.37098 1.51838 9.54992 1.62803C9.75176 1.75172 9.92471 1.92467 10.2706 2.27057L12.3961 4.39605C12.742 4.74196 12.915 4.91491 13.0386 5.11674C13.1483 5.29569 13.2291 5.49078 13.2781 5.69485C13.3334 5.92502 13.3334 6.16962 13.3334 6.6588Z" stroke="#F3F3F3" stroke-linecap="round" stroke-linejoin="round"/>
</svg>
