<svg width="16" height="16" viewBox="0 0 16 16" fill="none" xmlns="http://www.w3.org/2000/svg">
<path d="M8.50004 9.4259C8.50004 9.14976 8.27618 8.9259 8.00004 8.9259C7.7239 8.9259 7.50004 9.14976 7.50004 9.4259H8.50004ZM7.50004 10.5666C7.50004 10.8428 7.7239 11.0666 8.00004 11.0666C8.27618 11.0666 8.50004 10.8428 8.50004 10.5666H7.50004ZM10.4167 5.71849V6.85923H11.4167V5.71849H10.4167ZM5.58337 6.85923V5.71849H4.58337V6.85923H5.58337ZM8.00004 3.36664C9.34538 3.36664 10.4167 4.43013 10.4167 5.71849H11.4167C11.4167 3.85678 9.87636 2.36664 8.00004 2.36664V3.36664ZM8.00004 2.36664C6.12372 2.36664 4.58337 3.85678 4.58337 5.71849H5.58337C5.58337 4.43013 6.6547 3.36664 8.00004 3.36664V2.36664ZM7.50004 9.4259V10.5666H8.50004V9.4259H7.50004ZM4.50004 7.35923H11.5V6.35923H4.50004V7.35923ZM12.1667 7.99997V11.9926H13.1667V7.99997H12.1667ZM11.5 12.6333H4.50004V13.6333H11.5V12.6333ZM3.83337 11.9926V7.99997H2.83337V11.9926H3.83337ZM4.50004 12.6333C4.1212 12.6333 3.83337 12.3359 3.83337 11.9926H2.83337C2.83337 12.9093 3.59022 13.6333 4.50004 13.6333V12.6333ZM12.1667 11.9926C12.1667 12.3359 11.8789 12.6333 11.5 12.6333V13.6333C12.4099 13.6333 13.1667 12.9093 13.1667 11.9926H12.1667ZM11.5 7.35923C11.8789 7.35923 12.1667 7.65663 12.1667 7.99997H13.1667C13.1667 7.08328 12.4099 6.35923 11.5 6.35923V7.35923ZM4.50004 6.35923C3.59022 6.35923 2.83337 7.08328 2.83337 7.99997H3.83337C3.83337 7.65663 4.1212 7.35923 4.50004 7.35923V6.35923Z" fill="#F3F3F3"/>
</svg>
