<svg width="16" height="16" viewBox="0 0 16 16" fill="none" xmlns="http://www.w3.org/2000/svg">
<path d="M1.3335 4.66699L6.77678 8.47729C7.21756 8.78583 7.43795 8.94011 7.67767 8.99986C7.88943 9.05265 8.1109 9.05265 8.32265 8.99986C8.56238 8.94011 8.78277 8.78583 9.22355 8.47729L14.6668 4.66699M4.5335 13.3337H11.4668C12.5869 13.3337 13.147 13.3337 13.5748 13.1157C13.9511 12.9239 14.2571 12.618 14.4488 12.2416C14.6668 11.8138 14.6668 11.2538 14.6668 10.1337V5.86699C14.6668 4.74689 14.6668 4.18683 14.4488 3.75901C14.2571 3.38269 13.9511 3.07673 13.5748 2.88498C13.147 2.66699 12.5869 2.66699 11.4668 2.66699H4.5335C3.41339 2.66699 2.85334 2.66699 2.42552 2.88498C2.04919 3.07673 1.74323 3.38269 1.55148 3.75901C1.3335 4.18683 1.3335 4.74689 1.3335 5.86699V10.1337C1.3335 11.2538 1.3335 11.8138 1.55148 12.2416C1.74323 12.618 2.04919 12.9239 2.42552 13.1157C2.85334 13.3337 3.41339 13.3337 4.5335 13.3337Z" stroke="#F3F3F3" stroke-linecap="round" stroke-linejoin="round"/>
</svg>
