<svg width="17" height="17" viewBox="0 0 17 17" fill="none" xmlns="http://www.w3.org/2000/svg">
<circle cx="8.2122" cy="8.21207" r="6.28788" stroke="#F3F3F3"/>
<path d="M7.59972 9.52048V9.46552C7.60357 9.10684 7.63925 8.82144 7.70674 8.60932C7.77616 8.3972 7.87451 8.22557 8.00178 8.09445C8.12905 7.96332 8.28236 7.84376 8.4617 7.73577C8.5774 7.66249 8.68153 7.58053 8.7741 7.4899C8.86666 7.39927 8.93994 7.29513 8.99393 7.1775C9.04793 7.05987 9.07492 6.92971 9.07492 6.78701C9.07492 6.61538 9.03443 6.4669 8.95343 6.34155C8.87244 6.21621 8.76445 6.11979 8.62947 6.0523C8.49641 5.98287 8.34793 5.94816 8.18401 5.94816C8.03553 5.94816 7.89379 5.97902 7.75881 6.04073C7.62382 6.10243 7.51197 6.19885 7.42327 6.32998C7.33456 6.45918 7.28346 6.62599 7.26996 6.8304H6.39062C6.40412 6.48329 6.49186 6.19018 6.65385 5.95106C6.81583 5.71001 7.02988 5.52778 7.296 5.40436C7.56404 5.28095 7.86005 5.21924 8.18401 5.21924C8.53883 5.21924 8.8493 5.28577 9.11542 5.41883C9.38153 5.54995 9.58787 5.73411 9.73443 5.9713C9.88291 6.20657 9.95715 6.48136 9.95715 6.79568C9.95715 7.01166 9.92341 7.20643 9.85591 7.37998C9.78842 7.55161 9.692 7.70491 9.56666 7.8399C9.44324 7.97489 9.29476 8.09445 9.1212 8.19858C8.95729 8.30078 8.82423 8.40684 8.72203 8.51676C8.62175 8.62668 8.54848 8.75684 8.5022 8.90726C8.45591 9.05767 8.43085 9.24376 8.42699 9.46552V9.52048H7.59972ZM8.03649 11.2792C7.87837 11.2792 7.74242 11.2232 7.62864 11.1114C7.51487 10.9976 7.45798 10.8607 7.45798 10.7006C7.45798 10.5425 7.51487 10.4075 7.62864 10.2957C7.74242 10.1819 7.87837 10.125 8.03649 10.125C8.19269 10.125 8.32768 10.1819 8.44145 10.2957C8.55715 10.4075 8.61501 10.5425 8.61501 10.7006C8.61501 10.8067 8.58801 10.9041 8.53401 10.9928C8.48195 11.0796 8.41253 11.149 8.32575 11.2011C8.23897 11.2531 8.14255 11.2792 8.03649 11.2792Z" fill="#F3F3F3"/>
</svg>
