<svg width="16" height="16" viewBox="0 0 16 16" fill="none" xmlns="http://www.w3.org/2000/svg">
<g clip-path="url(#clip0_78_4095)">
<path d="M3.54485 12.9591C3.9504 12.0036 4.89727 11.3335 6.00065 11.3335H10.0007C11.104 11.3335 12.0509 12.0036 12.4565 12.9591M10.6673 6.3335C10.6673 7.80625 9.47341 9.00016 8.00065 9.00016C6.52789 9.00016 5.33398 7.80625 5.33398 6.3335C5.33398 4.86074 6.52789 3.66683 8.00065 3.66683C9.47341 3.66683 10.6673 4.86074 10.6673 6.3335ZM14.6673 8.00016C14.6673 11.6821 11.6825 14.6668 8.00065 14.6668C4.31875 14.6668 1.33398 11.6821 1.33398 8.00016C1.33398 4.31826 4.31875 1.3335 8.00065 1.3335C11.6825 1.3335 14.6673 4.31826 14.6673 8.00016Z" stroke="#F3F3F3" stroke-linecap="round" stroke-linejoin="round"/>
</g>
<defs>
<clipPath id="clip0_78_4095">
<rect width="16" height="16" fill="white"/>
</clipPath>
</defs>
</svg>
