<svg width="16" height="16" viewBox="0 0 16 16" fill="none" xmlns="http://www.w3.org/2000/svg">
<path d="M1.43093 8.489C1.33755 8.34114 1.29086 8.26721 1.26472 8.15318C1.24509 8.06753 1.24509 7.93245 1.26472 7.84679C1.29086 7.73276 1.33755 7.65883 1.43093 7.51097C2.20261 6.2891 4.49957 3.2002 8 3.2002C11.5004 3.2002 13.7974 6.28909 14.5691 7.51097C14.6624 7.65883 14.7091 7.73276 14.7353 7.84679C14.7549 7.93245 14.7549 8.06753 14.7353 8.15318C14.7091 8.26721 14.6624 8.34114 14.5691 8.489C13.7974 9.71088 11.5004 12.7998 8 12.7998C4.49957 12.7998 2.20261 9.71088 1.43093 8.489Z" stroke="#F3F3F3" stroke-linecap="round" stroke-linejoin="round"/>
<path d="M8 10C9.10457 10 10 9.10457 10 8C10 6.89543 9.10457 6 8 6C6.89543 6 6 6.89543 6 8C6 9.10457 6.89543 10 8 10Z" stroke="#F3F3F3" stroke-width="0.972263" stroke-linecap="round" stroke-linejoin="round"/>
</svg>
